%TF.GenerationSoftware,KiCad,Pcbnew,9.0.0*%
%TF.CreationDate,2025-02-28T18:37:17+01:00*%
%TF.ProjectId,C-Audio HV-CCS,432d4175-6469-46f2-9048-562d4343532e,rev?*%
%TF.SameCoordinates,Original*%
%TF.FileFunction,Legend,Top*%
%TF.FilePolarity,Positive*%
%FSLAX46Y46*%
G04 Gerber Fmt 4.6, Leading zero omitted, Abs format (unit mm)*
G04 Created by KiCad (PCBNEW 9.0.0) date 2025-02-28 18:37:17*
%MOMM*%
%LPD*%
G01*
G04 APERTURE LIST*
%ADD10C,0.100000*%
%ADD11C,0.150000*%
%ADD12C,0.120000*%
%ADD13C,0.075000*%
G04 APERTURE END LIST*
D10*
X156600000Y-109800000D02*
X152500000Y-109800000D01*
X138950000Y-114700000D02*
X140450000Y-115300000D01*
X155000000Y-117800781D02*
X153028660Y-118095352D01*
X136257394Y-85391929D02*
X136607394Y-85391929D01*
X136607394Y-86697779D01*
X136257394Y-86697779D01*
X136257394Y-85391929D01*
G36*
X136257394Y-85391929D02*
G01*
X136607394Y-85391929D01*
X136607394Y-86697779D01*
X136257394Y-86697779D01*
X136257394Y-85391929D01*
G37*
X139050000Y-117650000D02*
X140300000Y-117250000D01*
X155000000Y-114599219D02*
X153027460Y-114110145D01*
X149450000Y-85749219D02*
X147560799Y-85793879D01*
X147050000Y-115300000D02*
X148550000Y-114650000D01*
X156600781Y-92450000D02*
X156600781Y-87350000D01*
X147050000Y-117200000D02*
X148400000Y-117700000D01*
X149450000Y-88950781D02*
X147532339Y-88945504D01*
X153399219Y-87350000D02*
X153399219Y-92450000D01*
X156639999Y-113749999D02*
X152500000Y-113750000D01*
X152500000Y-108880001D01*
X156639999Y-108880001D01*
X156639999Y-113749999D01*
G36*
X152783571Y-115362692D02*
G01*
X152834707Y-115413829D01*
X152859133Y-115462680D01*
X152859133Y-115572408D01*
X152834707Y-115621258D01*
X152783571Y-115672395D01*
X152669645Y-115700877D01*
X152448620Y-115700877D01*
X152334695Y-115672395D01*
X152283558Y-115621259D01*
X152259133Y-115572408D01*
X152259133Y-115462680D01*
X152283558Y-115413828D01*
X152334695Y-115362692D01*
X152448620Y-115334211D01*
X152669645Y-115334211D01*
X152783571Y-115362692D01*
G37*
G36*
X153036911Y-118145322D02*
G01*
X152081355Y-118145322D01*
X152081355Y-117548681D01*
X152159181Y-117548681D01*
X152162939Y-117559015D01*
X152162939Y-117570011D01*
X152169221Y-117576293D01*
X152172259Y-117584646D01*
X152187989Y-117596186D01*
X152590898Y-117784210D01*
X152187989Y-117972235D01*
X152172259Y-117983775D01*
X152169221Y-117992127D01*
X152162939Y-117998410D01*
X152162939Y-118009405D01*
X152159181Y-118019740D01*
X152162939Y-118027792D01*
X152162939Y-118036678D01*
X152170713Y-118044452D01*
X152175364Y-118054418D01*
X152183716Y-118057455D01*
X152189999Y-118063738D01*
X152209133Y-118067544D01*
X152909133Y-118067544D01*
X152928267Y-118063738D01*
X152955327Y-118036678D01*
X152955327Y-117998410D01*
X152928267Y-117971350D01*
X152909133Y-117967544D01*
X152434511Y-117967544D01*
X152730278Y-117829520D01*
X152740667Y-117821897D01*
X152742902Y-117821085D01*
X152743488Y-117819827D01*
X152746007Y-117817980D01*
X152751851Y-117801907D01*
X152759085Y-117786407D01*
X152758286Y-117784211D01*
X152759085Y-117782015D01*
X152751851Y-117766514D01*
X152746007Y-117750442D01*
X152743488Y-117748594D01*
X152742902Y-117747337D01*
X152740666Y-117746524D01*
X152730277Y-117738902D01*
X152434510Y-117600877D01*
X152909133Y-117600877D01*
X152928267Y-117597071D01*
X152955327Y-117570011D01*
X152955327Y-117531743D01*
X152928267Y-117504683D01*
X152909133Y-117500877D01*
X152209133Y-117500877D01*
X152189999Y-117504683D01*
X152183716Y-117510965D01*
X152175364Y-117514003D01*
X152170713Y-117523968D01*
X152162939Y-117531743D01*
X152162939Y-117540628D01*
X152159181Y-117548681D01*
X152081355Y-117548681D01*
X152081355Y-116898410D01*
X152396272Y-116898410D01*
X152396272Y-116936678D01*
X152423332Y-116963738D01*
X152442466Y-116967544D01*
X152821755Y-116967544D01*
X152834708Y-116980497D01*
X152859133Y-117029346D01*
X152859133Y-117105741D01*
X152838532Y-117146942D01*
X152797331Y-117167544D01*
X152442466Y-117167544D01*
X152423332Y-117171350D01*
X152396272Y-117198410D01*
X152396272Y-117236678D01*
X152423332Y-117263738D01*
X152442466Y-117267544D01*
X152809133Y-117267544D01*
X152811589Y-117267055D01*
X152812677Y-117267418D01*
X152820401Y-117265302D01*
X152828267Y-117263738D01*
X152829078Y-117262926D01*
X152831493Y-117262265D01*
X152898161Y-117228932D01*
X152906026Y-117222827D01*
X152908560Y-117221983D01*
X152910748Y-117219163D01*
X152913573Y-117216971D01*
X152914418Y-117214434D01*
X152920521Y-117206571D01*
X152953855Y-117139904D01*
X152954516Y-117137488D01*
X152955327Y-117136678D01*
X152956890Y-117128817D01*
X152959007Y-117121088D01*
X152958644Y-117120000D01*
X152959133Y-117117544D01*
X152959133Y-117017544D01*
X152958644Y-117015087D01*
X152959007Y-117014000D01*
X152956890Y-117006270D01*
X152955327Y-116998410D01*
X152954516Y-116997599D01*
X152953855Y-116995184D01*
X152934843Y-116957161D01*
X152955327Y-116936678D01*
X152955327Y-116898410D01*
X152928267Y-116871350D01*
X152909133Y-116867544D01*
X152442466Y-116867544D01*
X152423332Y-116871350D01*
X152396272Y-116898410D01*
X152081355Y-116898410D01*
X152081355Y-116050878D01*
X152592466Y-116050878D01*
X152592466Y-116584211D01*
X152596272Y-116603345D01*
X152623332Y-116630405D01*
X152661600Y-116630405D01*
X152688660Y-116603345D01*
X152692466Y-116584211D01*
X152692466Y-116050878D01*
X152688660Y-116031744D01*
X152661600Y-116004684D01*
X152623332Y-116004684D01*
X152596272Y-116031744D01*
X152592466Y-116050878D01*
X152081355Y-116050878D01*
X152081355Y-115450877D01*
X152159133Y-115450877D01*
X152159133Y-115584211D01*
X152159621Y-115586667D01*
X152159259Y-115587756D01*
X152161375Y-115595483D01*
X152162939Y-115603345D01*
X152163750Y-115604156D01*
X152164412Y-115606572D01*
X152197745Y-115673238D01*
X152202660Y-115679572D01*
X152207111Y-115686232D01*
X152273777Y-115752899D01*
X152278281Y-115755909D01*
X152279367Y-115757718D01*
X152284902Y-115760332D01*
X152289998Y-115763738D01*
X152292110Y-115763738D01*
X152297006Y-115766051D01*
X152430339Y-115799384D01*
X152436456Y-115799681D01*
X152442466Y-115800877D01*
X152675800Y-115800877D01*
X152681809Y-115799681D01*
X152687927Y-115799384D01*
X152821259Y-115766051D01*
X152826155Y-115763738D01*
X152828267Y-115763738D01*
X152833361Y-115760334D01*
X152838899Y-115757718D01*
X152839985Y-115755907D01*
X152844488Y-115752899D01*
X152911155Y-115686233D01*
X152915609Y-115679566D01*
X152920521Y-115673238D01*
X152953854Y-115606572D01*
X152954515Y-115604156D01*
X152955327Y-115603345D01*
X152956891Y-115595480D01*
X152959007Y-115587755D01*
X152958644Y-115586667D01*
X152959133Y-115584211D01*
X152959133Y-115450877D01*
X152958644Y-115448420D01*
X152959007Y-115447333D01*
X152956891Y-115439607D01*
X152955327Y-115431743D01*
X152954515Y-115430931D01*
X152953854Y-115428516D01*
X152920521Y-115361850D01*
X152915609Y-115355521D01*
X152911155Y-115348855D01*
X152844488Y-115282189D01*
X152839985Y-115279180D01*
X152838899Y-115277370D01*
X152833361Y-115274753D01*
X152828267Y-115271350D01*
X152826155Y-115271350D01*
X152821259Y-115269037D01*
X152687927Y-115235704D01*
X152681809Y-115235406D01*
X152675800Y-115234211D01*
X152442466Y-115234211D01*
X152436456Y-115235406D01*
X152430339Y-115235704D01*
X152297006Y-115269037D01*
X152292110Y-115271350D01*
X152289998Y-115271350D01*
X152284902Y-115274755D01*
X152279367Y-115277370D01*
X152278281Y-115279178D01*
X152273777Y-115282189D01*
X152207111Y-115348856D01*
X152202660Y-115355515D01*
X152197745Y-115361850D01*
X152164412Y-115428516D01*
X152163750Y-115430931D01*
X152162939Y-115431743D01*
X152161375Y-115439604D01*
X152159259Y-115447332D01*
X152159621Y-115448420D01*
X152159133Y-115450877D01*
X152081355Y-115450877D01*
X152081355Y-114665077D01*
X152396272Y-114665077D01*
X152396272Y-114703345D01*
X152423332Y-114730405D01*
X152442466Y-114734211D01*
X152821755Y-114734211D01*
X152834708Y-114747164D01*
X152859133Y-114796013D01*
X152859133Y-114872408D01*
X152838532Y-114913609D01*
X152797331Y-114934211D01*
X152442466Y-114934211D01*
X152423332Y-114938017D01*
X152396272Y-114965077D01*
X152396272Y-115003345D01*
X152423332Y-115030405D01*
X152442466Y-115034211D01*
X152809133Y-115034211D01*
X152811589Y-115033722D01*
X152812677Y-115034085D01*
X152820401Y-115031969D01*
X152828267Y-115030405D01*
X152829078Y-115029593D01*
X152831493Y-115028932D01*
X152898161Y-114995599D01*
X152906026Y-114989494D01*
X152908560Y-114988650D01*
X152910748Y-114985830D01*
X152913573Y-114983638D01*
X152914418Y-114981101D01*
X152920521Y-114973238D01*
X152953855Y-114906571D01*
X152954516Y-114904155D01*
X152955327Y-114903345D01*
X152956890Y-114895484D01*
X152959007Y-114887755D01*
X152958644Y-114886667D01*
X152959133Y-114884211D01*
X152959133Y-114784211D01*
X152958644Y-114781754D01*
X152959007Y-114780667D01*
X152956890Y-114772937D01*
X152955327Y-114765077D01*
X152954516Y-114764266D01*
X152953855Y-114761851D01*
X152934843Y-114723828D01*
X152955327Y-114703345D01*
X152955327Y-114665077D01*
X152928267Y-114638017D01*
X152909133Y-114634211D01*
X152442466Y-114634211D01*
X152423332Y-114638017D01*
X152396272Y-114665077D01*
X152081355Y-114665077D01*
X152081355Y-114331744D01*
X152162939Y-114331744D01*
X152162939Y-114370012D01*
X152189999Y-114397072D01*
X152209133Y-114400878D01*
X152392466Y-114400878D01*
X152392466Y-114450878D01*
X152396272Y-114470012D01*
X152423332Y-114497072D01*
X152461600Y-114497072D01*
X152488660Y-114470012D01*
X152492466Y-114450878D01*
X152492466Y-114400878D01*
X152809133Y-114400878D01*
X152811589Y-114400389D01*
X152812677Y-114400752D01*
X152820401Y-114398636D01*
X152828267Y-114397072D01*
X152829078Y-114396260D01*
X152831493Y-114395599D01*
X152898161Y-114362266D01*
X152906026Y-114356161D01*
X152908560Y-114355317D01*
X152910748Y-114352497D01*
X152913573Y-114350305D01*
X152914418Y-114347768D01*
X152920521Y-114339905D01*
X152953855Y-114273238D01*
X152954516Y-114270822D01*
X152955327Y-114270012D01*
X152956890Y-114262151D01*
X152959007Y-114254422D01*
X152958644Y-114253334D01*
X152959133Y-114250878D01*
X152959133Y-114184211D01*
X152955327Y-114165077D01*
X152928267Y-114138017D01*
X152889999Y-114138017D01*
X152862939Y-114165077D01*
X152859133Y-114184211D01*
X152859133Y-114239075D01*
X152838532Y-114280276D01*
X152797331Y-114300878D01*
X152492466Y-114300878D01*
X152492466Y-114184211D01*
X152488660Y-114165077D01*
X152461600Y-114138017D01*
X152423332Y-114138017D01*
X152396272Y-114165077D01*
X152392466Y-114184211D01*
X152392466Y-114300878D01*
X152209133Y-114300878D01*
X152189999Y-114304684D01*
X152162939Y-114331744D01*
X152081355Y-114331744D01*
X152081355Y-114060239D01*
X153036911Y-114060239D01*
X153036911Y-118145322D01*
G37*
D11*
G36*
X142646950Y-86747859D02*
G01*
X136608062Y-86747859D01*
X136608062Y-85561748D01*
X136719173Y-85561748D01*
X136719173Y-86561748D01*
X136720614Y-86576380D01*
X136731813Y-86603416D01*
X136752505Y-86624108D01*
X136779541Y-86635307D01*
X136808805Y-86635307D01*
X136835841Y-86624108D01*
X136856533Y-86603416D01*
X136867732Y-86576380D01*
X136869173Y-86561748D01*
X136869173Y-86112938D01*
X137290601Y-86112938D01*
X137290601Y-86561748D01*
X137292042Y-86576380D01*
X137303241Y-86603416D01*
X137323933Y-86624108D01*
X137350969Y-86635307D01*
X137380233Y-86635307D01*
X137407269Y-86624108D01*
X137427961Y-86603416D01*
X137439160Y-86576380D01*
X137440601Y-86561748D01*
X137440601Y-85571128D01*
X137624524Y-85571128D01*
X137627784Y-85585465D01*
X137961117Y-86585465D01*
X137967111Y-86598890D01*
X137970621Y-86602937D01*
X137973018Y-86607731D01*
X137980126Y-86613896D01*
X137986285Y-86620997D01*
X137991074Y-86623391D01*
X137995125Y-86626905D01*
X138004050Y-86629879D01*
X138012458Y-86634084D01*
X138017802Y-86634463D01*
X138022888Y-86636159D01*
X138032268Y-86635492D01*
X138041648Y-86636159D01*
X138046733Y-86634463D01*
X138052078Y-86634084D01*
X138060488Y-86629878D01*
X138069410Y-86626905D01*
X138073457Y-86623394D01*
X138078251Y-86620998D01*
X138084414Y-86613892D01*
X138091518Y-86607731D01*
X138093913Y-86602939D01*
X138097425Y-86598891D01*
X138103419Y-86585465D01*
X138243186Y-86166163D01*
X138625376Y-86166163D01*
X138625376Y-86195427D01*
X138636575Y-86222463D01*
X138657267Y-86243155D01*
X138684303Y-86254354D01*
X138698935Y-86255795D01*
X139460840Y-86255795D01*
X139475472Y-86254354D01*
X139502508Y-86243155D01*
X139523200Y-86222463D01*
X139534399Y-86195427D01*
X139534399Y-86166163D01*
X139523200Y-86139127D01*
X139502508Y-86118435D01*
X139475472Y-86107236D01*
X139460840Y-86105795D01*
X138698935Y-86105795D01*
X138684303Y-86107236D01*
X138657267Y-86118435D01*
X138636575Y-86139127D01*
X138625376Y-86166163D01*
X138243186Y-86166163D01*
X138301801Y-85990319D01*
X139814411Y-85990319D01*
X139814411Y-86133176D01*
X139814662Y-86135729D01*
X139814500Y-86136822D01*
X139815309Y-86142295D01*
X139815852Y-86147808D01*
X139816274Y-86148829D01*
X139816650Y-86151366D01*
X139864269Y-86341842D01*
X139864654Y-86342921D01*
X139864693Y-86343461D01*
X139867020Y-86349542D01*
X139869216Y-86355688D01*
X139869538Y-86356123D01*
X139869948Y-86357193D01*
X139917567Y-86452431D01*
X139921530Y-86458727D01*
X139922288Y-86460557D01*
X139923977Y-86462615D01*
X139925399Y-86464874D01*
X139926897Y-86466173D01*
X139931616Y-86471923D01*
X140026854Y-86567162D01*
X140038219Y-86576490D01*
X140040709Y-86577521D01*
X140042744Y-86579286D01*
X140056170Y-86585280D01*
X140199026Y-86632899D01*
X140206281Y-86634548D01*
X140208112Y-86635307D01*
X140210765Y-86635568D01*
X140213363Y-86636159D01*
X140215337Y-86636018D01*
X140222744Y-86636748D01*
X140317982Y-86636748D01*
X140325387Y-86636018D01*
X140327362Y-86636159D01*
X140329959Y-86635568D01*
X140332614Y-86635307D01*
X140334445Y-86634548D01*
X140341699Y-86632899D01*
X140484556Y-86585280D01*
X140497981Y-86579286D01*
X140500016Y-86577520D01*
X140502507Y-86576489D01*
X140513873Y-86567161D01*
X140561491Y-86519542D01*
X140570819Y-86508176D01*
X140582017Y-86481140D01*
X140582017Y-86451877D01*
X140570818Y-86424841D01*
X140550125Y-86404148D01*
X140523089Y-86392950D01*
X140493826Y-86392950D01*
X140466790Y-86404149D01*
X140455424Y-86413477D01*
X140420325Y-86448576D01*
X140305812Y-86486748D01*
X140234914Y-86486748D01*
X140120401Y-86448577D01*
X140046288Y-86374463D01*
X140007794Y-86297476D01*
X139964411Y-86123942D01*
X139964411Y-85999553D01*
X139966719Y-85990319D01*
X140814411Y-85990319D01*
X140814411Y-86133176D01*
X140814662Y-86135729D01*
X140814500Y-86136822D01*
X140815309Y-86142295D01*
X140815852Y-86147808D01*
X140816274Y-86148829D01*
X140816650Y-86151366D01*
X140864269Y-86341842D01*
X140864654Y-86342921D01*
X140864693Y-86343461D01*
X140867020Y-86349542D01*
X140869216Y-86355688D01*
X140869538Y-86356123D01*
X140869948Y-86357193D01*
X140917567Y-86452431D01*
X140921530Y-86458727D01*
X140922288Y-86460557D01*
X140923977Y-86462615D01*
X140925399Y-86464874D01*
X140926897Y-86466173D01*
X140931616Y-86471923D01*
X141026854Y-86567162D01*
X141038219Y-86576490D01*
X141040709Y-86577521D01*
X141042744Y-86579286D01*
X141056170Y-86585280D01*
X141199026Y-86632899D01*
X141206281Y-86634548D01*
X141208112Y-86635307D01*
X141210765Y-86635568D01*
X141213363Y-86636159D01*
X141215337Y-86636018D01*
X141222744Y-86636748D01*
X141317982Y-86636748D01*
X141325387Y-86636018D01*
X141327362Y-86636159D01*
X141329959Y-86635568D01*
X141332614Y-86635307D01*
X141334445Y-86634548D01*
X141341699Y-86632899D01*
X141484556Y-86585280D01*
X141497981Y-86579286D01*
X141500016Y-86577520D01*
X141502507Y-86576489D01*
X141513873Y-86567161D01*
X141561491Y-86519542D01*
X141570819Y-86508176D01*
X141582017Y-86481140D01*
X141582017Y-86451877D01*
X141570818Y-86424841D01*
X141550125Y-86404148D01*
X141523089Y-86392950D01*
X141493826Y-86392950D01*
X141466790Y-86404149D01*
X141455424Y-86413477D01*
X141420325Y-86448576D01*
X141305812Y-86486748D01*
X141234914Y-86486748D01*
X141120401Y-86448577D01*
X141046288Y-86374463D01*
X141007794Y-86297476D01*
X140964411Y-86123942D01*
X140964411Y-85999553D01*
X141007794Y-85826019D01*
X141044692Y-85752224D01*
X141814411Y-85752224D01*
X141814411Y-85847462D01*
X141815852Y-85862094D01*
X141816883Y-85864583D01*
X141817074Y-85867271D01*
X141822329Y-85881003D01*
X141869948Y-85976241D01*
X141873912Y-85982540D01*
X141874670Y-85984368D01*
X141876358Y-85986424D01*
X141877780Y-85988684D01*
X141879278Y-85989983D01*
X141883997Y-85995733D01*
X141931616Y-86043352D01*
X141937365Y-86048070D01*
X141938665Y-86049569D01*
X141940924Y-86050990D01*
X141942981Y-86052679D01*
X141944808Y-86053436D01*
X141951108Y-86057401D01*
X142046346Y-86105020D01*
X142047415Y-86105429D01*
X142047851Y-86105752D01*
X142053987Y-86107944D01*
X142060077Y-86110275D01*
X142060617Y-86110313D01*
X142061697Y-86110699D01*
X142244187Y-86156321D01*
X142321174Y-86194815D01*
X142351581Y-86225222D01*
X142385839Y-86293738D01*
X142385839Y-86353566D01*
X142351580Y-86422082D01*
X142321173Y-86452490D01*
X142252658Y-86486748D01*
X142044438Y-86486748D01*
X141913128Y-86442978D01*
X141898791Y-86439718D01*
X141869601Y-86441793D01*
X141843428Y-86454879D01*
X141824254Y-86476986D01*
X141815000Y-86504749D01*
X141817075Y-86533939D01*
X141830161Y-86560112D01*
X141852268Y-86579286D01*
X141865694Y-86585280D01*
X142008550Y-86632899D01*
X142015805Y-86634548D01*
X142017636Y-86635307D01*
X142020289Y-86635568D01*
X142022887Y-86636159D01*
X142024861Y-86636018D01*
X142032268Y-86636748D01*
X142270363Y-86636748D01*
X142284995Y-86635307D01*
X142287484Y-86634275D01*
X142290172Y-86634085D01*
X142303904Y-86628830D01*
X142399142Y-86581211D01*
X142405441Y-86577246D01*
X142407269Y-86576489D01*
X142409325Y-86574801D01*
X142411585Y-86573379D01*
X142412885Y-86571879D01*
X142418635Y-86567161D01*
X142466253Y-86519542D01*
X142470971Y-86513792D01*
X142472470Y-86512493D01*
X142473891Y-86510234D01*
X142475581Y-86508176D01*
X142476338Y-86506346D01*
X142480302Y-86500050D01*
X142527921Y-86404812D01*
X142533176Y-86391081D01*
X142533367Y-86388391D01*
X142534398Y-86385903D01*
X142535839Y-86371271D01*
X142535839Y-86276033D01*
X142534398Y-86261401D01*
X142533367Y-86258912D01*
X142533176Y-86256223D01*
X142527921Y-86242492D01*
X142480302Y-86147254D01*
X142476337Y-86140954D01*
X142475580Y-86139127D01*
X142473891Y-86137070D01*
X142472470Y-86134811D01*
X142470971Y-86133511D01*
X142466253Y-86127762D01*
X142418634Y-86080143D01*
X142412884Y-86075424D01*
X142411585Y-86073926D01*
X142409325Y-86072504D01*
X142407269Y-86070816D01*
X142405441Y-86070058D01*
X142399142Y-86066094D01*
X142303904Y-86018475D01*
X142302834Y-86018065D01*
X142302399Y-86017743D01*
X142296253Y-86015547D01*
X142290172Y-86013220D01*
X142289632Y-86013181D01*
X142288553Y-86012796D01*
X142106063Y-85967173D01*
X142029076Y-85928680D01*
X141998669Y-85898273D01*
X141964411Y-85829757D01*
X141964411Y-85769929D01*
X141998669Y-85701413D01*
X142029076Y-85671006D01*
X142097592Y-85636748D01*
X142305812Y-85636748D01*
X142437121Y-85680518D01*
X142451458Y-85683778D01*
X142480648Y-85681703D01*
X142506822Y-85668617D01*
X142525996Y-85646509D01*
X142535250Y-85618747D01*
X142533175Y-85589557D01*
X142520088Y-85563384D01*
X142497981Y-85544210D01*
X142484556Y-85538216D01*
X142341699Y-85490597D01*
X142334445Y-85488947D01*
X142332614Y-85488189D01*
X142329959Y-85487927D01*
X142327362Y-85487337D01*
X142325387Y-85487477D01*
X142317982Y-85486748D01*
X142079887Y-85486748D01*
X142065255Y-85488189D01*
X142062766Y-85489219D01*
X142060077Y-85489411D01*
X142046346Y-85494666D01*
X141951108Y-85542285D01*
X141944808Y-85546249D01*
X141942981Y-85547007D01*
X141940924Y-85548695D01*
X141938665Y-85550117D01*
X141937365Y-85551615D01*
X141931616Y-85556334D01*
X141883997Y-85603953D01*
X141879278Y-85609702D01*
X141877780Y-85611002D01*
X141876358Y-85613261D01*
X141874670Y-85615318D01*
X141873912Y-85617145D01*
X141869948Y-85623445D01*
X141822329Y-85718683D01*
X141817074Y-85732415D01*
X141816883Y-85735102D01*
X141815852Y-85737592D01*
X141814411Y-85752224D01*
X141044692Y-85752224D01*
X141046288Y-85749032D01*
X141120401Y-85674919D01*
X141234914Y-85636748D01*
X141305812Y-85636748D01*
X141420325Y-85674919D01*
X141455425Y-85710019D01*
X141466790Y-85719346D01*
X141493826Y-85730545D01*
X141523089Y-85730545D01*
X141550125Y-85719346D01*
X141570818Y-85698653D01*
X141582017Y-85671617D01*
X141582017Y-85642354D01*
X141570818Y-85615318D01*
X141561491Y-85603953D01*
X141513872Y-85556334D01*
X141502507Y-85547007D01*
X141500016Y-85545975D01*
X141497981Y-85544210D01*
X141484556Y-85538216D01*
X141341699Y-85490597D01*
X141334445Y-85488947D01*
X141332614Y-85488189D01*
X141329959Y-85487927D01*
X141327362Y-85487337D01*
X141325387Y-85487477D01*
X141317982Y-85486748D01*
X141222744Y-85486748D01*
X141215337Y-85487477D01*
X141213363Y-85487337D01*
X141210765Y-85487927D01*
X141208112Y-85488189D01*
X141206281Y-85488947D01*
X141199026Y-85490597D01*
X141056170Y-85538216D01*
X141042744Y-85544210D01*
X141040709Y-85545974D01*
X141038219Y-85547006D01*
X141026854Y-85556334D01*
X140931616Y-85651572D01*
X140926897Y-85657321D01*
X140925399Y-85658621D01*
X140923977Y-85660880D01*
X140922289Y-85662937D01*
X140921531Y-85664764D01*
X140917567Y-85671064D01*
X140869948Y-85766302D01*
X140869538Y-85767371D01*
X140869216Y-85767807D01*
X140867020Y-85773952D01*
X140864693Y-85780034D01*
X140864654Y-85780573D01*
X140864269Y-85781653D01*
X140816650Y-85972129D01*
X140816274Y-85974665D01*
X140815852Y-85975687D01*
X140815309Y-85981199D01*
X140814500Y-85986673D01*
X140814662Y-85987765D01*
X140814411Y-85990319D01*
X139966719Y-85990319D01*
X140007794Y-85826019D01*
X140046288Y-85749032D01*
X140120401Y-85674919D01*
X140234914Y-85636748D01*
X140305812Y-85636748D01*
X140420325Y-85674919D01*
X140455425Y-85710019D01*
X140466790Y-85719346D01*
X140493826Y-85730545D01*
X140523089Y-85730545D01*
X140550125Y-85719346D01*
X140570818Y-85698653D01*
X140582017Y-85671617D01*
X140582017Y-85642354D01*
X140570818Y-85615318D01*
X140561491Y-85603953D01*
X140513872Y-85556334D01*
X140502507Y-85547007D01*
X140500016Y-85545975D01*
X140497981Y-85544210D01*
X140484556Y-85538216D01*
X140341699Y-85490597D01*
X140334445Y-85488947D01*
X140332614Y-85488189D01*
X140329959Y-85487927D01*
X140327362Y-85487337D01*
X140325387Y-85487477D01*
X140317982Y-85486748D01*
X140222744Y-85486748D01*
X140215337Y-85487477D01*
X140213363Y-85487337D01*
X140210765Y-85487927D01*
X140208112Y-85488189D01*
X140206281Y-85488947D01*
X140199026Y-85490597D01*
X140056170Y-85538216D01*
X140042744Y-85544210D01*
X140040709Y-85545974D01*
X140038219Y-85547006D01*
X140026854Y-85556334D01*
X139931616Y-85651572D01*
X139926897Y-85657321D01*
X139925399Y-85658621D01*
X139923977Y-85660880D01*
X139922289Y-85662937D01*
X139921531Y-85664764D01*
X139917567Y-85671064D01*
X139869948Y-85766302D01*
X139869538Y-85767371D01*
X139869216Y-85767807D01*
X139867020Y-85773952D01*
X139864693Y-85780034D01*
X139864654Y-85780573D01*
X139864269Y-85781653D01*
X139816650Y-85972129D01*
X139816274Y-85974665D01*
X139815852Y-85975687D01*
X139815309Y-85981199D01*
X139814500Y-85986673D01*
X139814662Y-85987765D01*
X139814411Y-85990319D01*
X138301801Y-85990319D01*
X138436752Y-85585465D01*
X138440012Y-85571129D01*
X138437937Y-85541939D01*
X138424851Y-85515765D01*
X138402743Y-85496591D01*
X138374981Y-85487337D01*
X138345791Y-85489412D01*
X138319618Y-85502499D01*
X138300444Y-85524606D01*
X138294450Y-85538031D01*
X138032268Y-86324577D01*
X137770086Y-85538031D01*
X137764092Y-85524605D01*
X137744918Y-85502498D01*
X137718745Y-85489412D01*
X137689555Y-85487337D01*
X137661792Y-85496591D01*
X137639685Y-85515765D01*
X137626599Y-85541938D01*
X137624524Y-85571128D01*
X137440601Y-85571128D01*
X137440601Y-85561748D01*
X137439160Y-85547116D01*
X137427961Y-85520080D01*
X137407269Y-85499388D01*
X137380233Y-85488189D01*
X137350969Y-85488189D01*
X137323933Y-85499388D01*
X137303241Y-85520080D01*
X137292042Y-85547116D01*
X137290601Y-85561748D01*
X137290601Y-85962938D01*
X136869173Y-85962938D01*
X136869173Y-85561748D01*
X136867732Y-85547116D01*
X136856533Y-85520080D01*
X136835841Y-85499388D01*
X136808805Y-85488189D01*
X136779541Y-85488189D01*
X136752505Y-85499388D01*
X136731813Y-85520080D01*
X136720614Y-85547116D01*
X136719173Y-85561748D01*
X136608062Y-85561748D01*
X136608062Y-85375637D01*
X142646950Y-85375637D01*
X142646950Y-86747859D01*
G37*
D10*
G36*
X154386911Y-90895196D02*
G01*
X153431355Y-90895196D01*
X153431355Y-90304421D01*
X153509259Y-90304421D01*
X153526373Y-90338650D01*
X153543322Y-90348311D01*
X154101020Y-90534210D01*
X153543322Y-90720110D01*
X153526373Y-90729771D01*
X153509259Y-90764000D01*
X153521360Y-90800304D01*
X153555589Y-90817418D01*
X153574944Y-90814978D01*
X154274945Y-90581645D01*
X154291893Y-90571984D01*
X154293563Y-90568641D01*
X154296906Y-90566971D01*
X154301919Y-90551931D01*
X154309007Y-90537755D01*
X154307825Y-90534211D01*
X154309007Y-90530667D01*
X154301919Y-90516490D01*
X154296906Y-90501451D01*
X154293563Y-90499779D01*
X154291893Y-90496438D01*
X154274944Y-90486777D01*
X153574944Y-90253443D01*
X153555589Y-90251003D01*
X153521360Y-90268117D01*
X153509259Y-90304421D01*
X153431355Y-90304421D01*
X153431355Y-89800877D01*
X153509133Y-89800877D01*
X153509133Y-89967544D01*
X153509621Y-89970000D01*
X153509259Y-89971088D01*
X153511374Y-89978812D01*
X153512939Y-89986678D01*
X153513750Y-89987489D01*
X153514412Y-89989904D01*
X153547745Y-90056572D01*
X153552656Y-90062900D01*
X153557111Y-90069567D01*
X153590445Y-90102900D01*
X153597107Y-90107351D01*
X153603439Y-90112265D01*
X153670105Y-90145598D01*
X153672520Y-90146259D01*
X153673332Y-90147071D01*
X153681196Y-90148635D01*
X153688922Y-90150751D01*
X153690009Y-90150388D01*
X153692466Y-90150877D01*
X153759133Y-90150877D01*
X153761589Y-90150388D01*
X153762677Y-90150751D01*
X153770401Y-90148635D01*
X153778267Y-90147071D01*
X153779078Y-90146259D01*
X153781493Y-90145598D01*
X153848161Y-90112265D01*
X153854495Y-90107349D01*
X153861155Y-90102899D01*
X153894488Y-90069566D01*
X153898942Y-90062899D01*
X153903854Y-90056571D01*
X153937188Y-89989904D01*
X153938634Y-89984621D01*
X153940973Y-89979671D01*
X153972976Y-89851660D01*
X154000226Y-89797160D01*
X154022083Y-89775303D01*
X154070936Y-89750877D01*
X154113997Y-89750877D01*
X154162847Y-89775302D01*
X154184708Y-89797164D01*
X154209133Y-89846013D01*
X154209133Y-89992764D01*
X154178366Y-90085066D01*
X154175926Y-90104421D01*
X154193040Y-90138650D01*
X154229344Y-90150751D01*
X154263573Y-90133637D01*
X154273234Y-90116688D01*
X154306567Y-90016688D01*
X154307569Y-90008739D01*
X154309133Y-90000877D01*
X154309133Y-89834211D01*
X154308644Y-89831754D01*
X154309007Y-89830667D01*
X154306890Y-89822937D01*
X154305327Y-89815077D01*
X154304516Y-89814266D01*
X154303855Y-89811851D01*
X154270521Y-89745184D01*
X154265614Y-89738862D01*
X154261155Y-89732188D01*
X154227821Y-89698855D01*
X154221155Y-89694401D01*
X154214827Y-89689490D01*
X154148161Y-89656156D01*
X154145745Y-89655494D01*
X154144934Y-89654683D01*
X154137072Y-89653119D01*
X154129345Y-89651003D01*
X154128256Y-89651365D01*
X154125800Y-89650877D01*
X154059133Y-89650877D01*
X154056676Y-89651365D01*
X154055588Y-89651003D01*
X154047860Y-89653119D01*
X154039999Y-89654683D01*
X154039187Y-89655494D01*
X154036772Y-89656156D01*
X153970105Y-89689490D01*
X153963770Y-89694405D01*
X153957111Y-89698856D01*
X153923778Y-89732189D01*
X153919327Y-89738848D01*
X153914412Y-89745183D01*
X153881079Y-89811851D01*
X153879633Y-89817129D01*
X153877293Y-89822084D01*
X153845289Y-89950093D01*
X153818040Y-90004593D01*
X153796183Y-90026450D01*
X153747331Y-90050877D01*
X153704269Y-90050877D01*
X153655418Y-90026451D01*
X153633558Y-90004592D01*
X153609133Y-89955741D01*
X153609133Y-89808989D01*
X153639900Y-89716688D01*
X153642340Y-89697333D01*
X153625226Y-89663104D01*
X153588922Y-89651003D01*
X153554693Y-89668117D01*
X153545032Y-89685066D01*
X153511699Y-89785066D01*
X153510696Y-89793014D01*
X153509133Y-89800877D01*
X153431355Y-89800877D01*
X153431355Y-89134210D01*
X153509133Y-89134210D01*
X153509133Y-89300877D01*
X153509621Y-89303333D01*
X153509259Y-89304421D01*
X153511374Y-89312145D01*
X153512939Y-89320011D01*
X153513750Y-89320822D01*
X153514412Y-89323237D01*
X153547745Y-89389905D01*
X153552656Y-89396233D01*
X153557111Y-89402900D01*
X153590445Y-89436233D01*
X153597107Y-89440684D01*
X153603439Y-89445598D01*
X153670105Y-89478931D01*
X153672520Y-89479592D01*
X153673332Y-89480404D01*
X153681196Y-89481968D01*
X153688922Y-89484084D01*
X153690009Y-89483721D01*
X153692466Y-89484210D01*
X153759133Y-89484210D01*
X153761589Y-89483721D01*
X153762677Y-89484084D01*
X153770401Y-89481968D01*
X153778267Y-89480404D01*
X153779078Y-89479592D01*
X153781493Y-89478931D01*
X153848161Y-89445598D01*
X153854495Y-89440682D01*
X153861155Y-89436232D01*
X153894488Y-89402899D01*
X153898942Y-89396232D01*
X153903854Y-89389904D01*
X153937188Y-89323237D01*
X153938634Y-89317954D01*
X153940973Y-89313004D01*
X153972976Y-89184993D01*
X154000226Y-89130493D01*
X154022083Y-89108636D01*
X154070936Y-89084210D01*
X154113997Y-89084210D01*
X154162847Y-89108635D01*
X154184708Y-89130497D01*
X154209133Y-89179346D01*
X154209133Y-89326097D01*
X154178366Y-89418399D01*
X154175926Y-89437754D01*
X154193040Y-89471983D01*
X154229344Y-89484084D01*
X154263573Y-89466970D01*
X154273234Y-89450021D01*
X154306567Y-89350021D01*
X154307569Y-89342072D01*
X154309133Y-89334210D01*
X154309133Y-89167544D01*
X154308644Y-89165087D01*
X154309007Y-89164000D01*
X154306890Y-89156270D01*
X154305327Y-89148410D01*
X154304516Y-89147599D01*
X154303855Y-89145184D01*
X154270521Y-89078517D01*
X154265614Y-89072195D01*
X154261155Y-89065521D01*
X154227821Y-89032188D01*
X154221155Y-89027734D01*
X154214827Y-89022823D01*
X154148161Y-88989489D01*
X154145745Y-88988827D01*
X154144934Y-88988016D01*
X154137072Y-88986452D01*
X154129345Y-88984336D01*
X154128256Y-88984698D01*
X154125800Y-88984210D01*
X154059133Y-88984210D01*
X154056676Y-88984698D01*
X154055588Y-88984336D01*
X154047860Y-88986452D01*
X154039999Y-88988016D01*
X154039187Y-88988827D01*
X154036772Y-88989489D01*
X153970105Y-89022823D01*
X153963770Y-89027738D01*
X153957111Y-89032189D01*
X153923778Y-89065522D01*
X153919327Y-89072181D01*
X153914412Y-89078516D01*
X153881079Y-89145184D01*
X153879633Y-89150462D01*
X153877293Y-89155417D01*
X153845289Y-89283426D01*
X153818040Y-89337926D01*
X153796183Y-89359783D01*
X153747331Y-89384210D01*
X153704269Y-89384210D01*
X153655418Y-89359784D01*
X153633558Y-89337925D01*
X153609133Y-89289074D01*
X153609133Y-89142322D01*
X153639900Y-89050021D01*
X153642340Y-89030666D01*
X153625226Y-88996437D01*
X153588922Y-88984336D01*
X153554693Y-89001450D01*
X153545032Y-89018399D01*
X153511699Y-89118399D01*
X153510696Y-89126347D01*
X153509133Y-89134210D01*
X153431355Y-89134210D01*
X153431355Y-88906432D01*
X154386911Y-88906432D01*
X154386911Y-90895196D01*
G37*
D11*
X138996303Y-95068104D02*
X138958207Y-95106200D01*
X138958207Y-95106200D02*
X138843922Y-95144295D01*
X138843922Y-95144295D02*
X138767731Y-95144295D01*
X138767731Y-95144295D02*
X138653445Y-95106200D01*
X138653445Y-95106200D02*
X138577255Y-95030009D01*
X138577255Y-95030009D02*
X138539160Y-94953819D01*
X138539160Y-94953819D02*
X138501064Y-94801438D01*
X138501064Y-94801438D02*
X138501064Y-94687152D01*
X138501064Y-94687152D02*
X138539160Y-94534771D01*
X138539160Y-94534771D02*
X138577255Y-94458580D01*
X138577255Y-94458580D02*
X138653445Y-94382390D01*
X138653445Y-94382390D02*
X138767731Y-94344295D01*
X138767731Y-94344295D02*
X138843922Y-94344295D01*
X138843922Y-94344295D02*
X138958207Y-94382390D01*
X138958207Y-94382390D02*
X138996303Y-94420485D01*
X139682017Y-95144295D02*
X139682017Y-94725247D01*
X139682017Y-94725247D02*
X139643922Y-94649057D01*
X139643922Y-94649057D02*
X139567731Y-94610961D01*
X139567731Y-94610961D02*
X139415350Y-94610961D01*
X139415350Y-94610961D02*
X139339160Y-94649057D01*
X139682017Y-95106200D02*
X139605826Y-95144295D01*
X139605826Y-95144295D02*
X139415350Y-95144295D01*
X139415350Y-95144295D02*
X139339160Y-95106200D01*
X139339160Y-95106200D02*
X139301064Y-95030009D01*
X139301064Y-95030009D02*
X139301064Y-94953819D01*
X139301064Y-94953819D02*
X139339160Y-94877628D01*
X139339160Y-94877628D02*
X139415350Y-94839533D01*
X139415350Y-94839533D02*
X139605826Y-94839533D01*
X139605826Y-94839533D02*
X139682017Y-94801438D01*
X140405827Y-94610961D02*
X140405827Y-95144295D01*
X140062970Y-94610961D02*
X140062970Y-95030009D01*
X140062970Y-95030009D02*
X140101065Y-95106200D01*
X140101065Y-95106200D02*
X140177255Y-95144295D01*
X140177255Y-95144295D02*
X140291541Y-95144295D01*
X140291541Y-95144295D02*
X140367732Y-95106200D01*
X140367732Y-95106200D02*
X140405827Y-95068104D01*
X140672494Y-94610961D02*
X140977256Y-94610961D01*
X140786780Y-94344295D02*
X140786780Y-95030009D01*
X140786780Y-95030009D02*
X140824875Y-95106200D01*
X140824875Y-95106200D02*
X140901065Y-95144295D01*
X140901065Y-95144295D02*
X140977256Y-95144295D01*
X141243923Y-95144295D02*
X141243923Y-94610961D01*
X141243923Y-94344295D02*
X141205827Y-94382390D01*
X141205827Y-94382390D02*
X141243923Y-94420485D01*
X141243923Y-94420485D02*
X141282018Y-94382390D01*
X141282018Y-94382390D02*
X141243923Y-94344295D01*
X141243923Y-94344295D02*
X141243923Y-94420485D01*
X141739160Y-95144295D02*
X141662970Y-95106200D01*
X141662970Y-95106200D02*
X141624875Y-95068104D01*
X141624875Y-95068104D02*
X141586779Y-94991914D01*
X141586779Y-94991914D02*
X141586779Y-94763342D01*
X141586779Y-94763342D02*
X141624875Y-94687152D01*
X141624875Y-94687152D02*
X141662970Y-94649057D01*
X141662970Y-94649057D02*
X141739160Y-94610961D01*
X141739160Y-94610961D02*
X141853446Y-94610961D01*
X141853446Y-94610961D02*
X141929637Y-94649057D01*
X141929637Y-94649057D02*
X141967732Y-94687152D01*
X141967732Y-94687152D02*
X142005827Y-94763342D01*
X142005827Y-94763342D02*
X142005827Y-94991914D01*
X142005827Y-94991914D02*
X141967732Y-95068104D01*
X141967732Y-95068104D02*
X141929637Y-95106200D01*
X141929637Y-95106200D02*
X141853446Y-95144295D01*
X141853446Y-95144295D02*
X141739160Y-95144295D01*
X142348685Y-94610961D02*
X142348685Y-95144295D01*
X142348685Y-94687152D02*
X142386780Y-94649057D01*
X142386780Y-94649057D02*
X142462970Y-94610961D01*
X142462970Y-94610961D02*
X142577256Y-94610961D01*
X142577256Y-94610961D02*
X142653447Y-94649057D01*
X142653447Y-94649057D02*
X142691542Y-94725247D01*
X142691542Y-94725247D02*
X142691542Y-95144295D01*
X143110590Y-95106200D02*
X143110590Y-95144295D01*
X143110590Y-95144295D02*
X143072495Y-95220485D01*
X143072495Y-95220485D02*
X143034399Y-95258580D01*
X144062971Y-95144295D02*
X144062971Y-94344295D01*
X144062971Y-94725247D02*
X144520114Y-94725247D01*
X144520114Y-95144295D02*
X144520114Y-94344295D01*
X145053447Y-94344295D02*
X145205828Y-94344295D01*
X145205828Y-94344295D02*
X145282018Y-94382390D01*
X145282018Y-94382390D02*
X145358209Y-94458580D01*
X145358209Y-94458580D02*
X145396304Y-94610961D01*
X145396304Y-94610961D02*
X145396304Y-94877628D01*
X145396304Y-94877628D02*
X145358209Y-95030009D01*
X145358209Y-95030009D02*
X145282018Y-95106200D01*
X145282018Y-95106200D02*
X145205828Y-95144295D01*
X145205828Y-95144295D02*
X145053447Y-95144295D01*
X145053447Y-95144295D02*
X144977256Y-95106200D01*
X144977256Y-95106200D02*
X144901066Y-95030009D01*
X144901066Y-95030009D02*
X144862970Y-94877628D01*
X144862970Y-94877628D02*
X144862970Y-94610961D01*
X144862970Y-94610961D02*
X144901066Y-94458580D01*
X144901066Y-94458580D02*
X144977256Y-94382390D01*
X144977256Y-94382390D02*
X145053447Y-94344295D01*
X145624875Y-94344295D02*
X146082018Y-94344295D01*
X145853446Y-95144295D02*
X145853446Y-94344295D01*
X146348685Y-95068104D02*
X146386780Y-95106200D01*
X146386780Y-95106200D02*
X146348685Y-95144295D01*
X146348685Y-95144295D02*
X146310589Y-95106200D01*
X146310589Y-95106200D02*
X146348685Y-95068104D01*
X146348685Y-95068104D02*
X146348685Y-95144295D01*
X146348685Y-94839533D02*
X146310589Y-94382390D01*
X146310589Y-94382390D02*
X146348685Y-94344295D01*
X146348685Y-94344295D02*
X146386780Y-94382390D01*
X146386780Y-94382390D02*
X146348685Y-94839533D01*
X146348685Y-94839533D02*
X146348685Y-94344295D01*
D10*
G36*
X147164810Y-86617543D02*
G01*
X147104269Y-86617543D01*
X147063067Y-86596942D01*
X147042466Y-86555739D01*
X147042466Y-86446013D01*
X147063067Y-86404810D01*
X147104269Y-86384210D01*
X147118143Y-86384210D01*
X147164810Y-86617543D01*
G37*
G36*
X147586911Y-88995196D02*
G01*
X146631355Y-88995196D01*
X146631355Y-88404421D01*
X146709259Y-88404421D01*
X146726373Y-88438650D01*
X146743322Y-88448311D01*
X147301020Y-88634210D01*
X146743322Y-88820110D01*
X146726373Y-88829771D01*
X146709259Y-88864000D01*
X146721360Y-88900304D01*
X146755589Y-88917418D01*
X146774944Y-88914978D01*
X147474945Y-88681645D01*
X147491893Y-88671984D01*
X147493563Y-88668641D01*
X147496906Y-88666971D01*
X147501919Y-88651931D01*
X147509007Y-88637755D01*
X147507825Y-88634211D01*
X147509007Y-88630667D01*
X147501919Y-88616490D01*
X147496906Y-88601451D01*
X147493563Y-88599779D01*
X147491893Y-88596438D01*
X147474944Y-88586777D01*
X146774944Y-88353443D01*
X146755589Y-88351003D01*
X146721360Y-88368117D01*
X146709259Y-88404421D01*
X146631355Y-88404421D01*
X146631355Y-87634211D01*
X147142466Y-87634211D01*
X147142466Y-88167544D01*
X147146272Y-88186678D01*
X147173332Y-88213738D01*
X147211600Y-88213738D01*
X147238660Y-88186678D01*
X147242466Y-88167544D01*
X147242466Y-87634211D01*
X147238660Y-87615077D01*
X147211600Y-87588017D01*
X147173332Y-87588017D01*
X147146272Y-87615077D01*
X147142466Y-87634211D01*
X146631355Y-87634211D01*
X146631355Y-87034210D01*
X146709133Y-87034210D01*
X146709133Y-87200877D01*
X146709621Y-87203333D01*
X146709259Y-87204421D01*
X146711374Y-87212145D01*
X146712939Y-87220011D01*
X146713750Y-87220822D01*
X146714412Y-87223237D01*
X146747745Y-87289905D01*
X146752656Y-87296233D01*
X146757111Y-87302900D01*
X146790445Y-87336233D01*
X146797107Y-87340684D01*
X146803439Y-87345598D01*
X146870105Y-87378931D01*
X146872520Y-87379592D01*
X146873332Y-87380404D01*
X146881196Y-87381968D01*
X146888922Y-87384084D01*
X146890009Y-87383721D01*
X146892466Y-87384210D01*
X146959133Y-87384210D01*
X146961589Y-87383721D01*
X146962677Y-87384084D01*
X146970401Y-87381968D01*
X146978267Y-87380404D01*
X146979078Y-87379592D01*
X146981493Y-87378931D01*
X147048161Y-87345598D01*
X147054495Y-87340682D01*
X147061155Y-87336232D01*
X147094488Y-87302899D01*
X147098942Y-87296232D01*
X147103854Y-87289904D01*
X147137188Y-87223237D01*
X147138634Y-87217954D01*
X147140973Y-87213004D01*
X147172976Y-87084993D01*
X147200226Y-87030493D01*
X147222083Y-87008636D01*
X147270936Y-86984210D01*
X147313997Y-86984210D01*
X147362847Y-87008635D01*
X147384708Y-87030497D01*
X147409133Y-87079346D01*
X147409133Y-87226097D01*
X147378366Y-87318399D01*
X147375926Y-87337754D01*
X147393040Y-87371983D01*
X147429344Y-87384084D01*
X147463573Y-87366970D01*
X147473234Y-87350021D01*
X147506567Y-87250021D01*
X147507569Y-87242072D01*
X147509133Y-87234210D01*
X147509133Y-87067544D01*
X147508644Y-87065087D01*
X147509007Y-87064000D01*
X147506890Y-87056270D01*
X147505327Y-87048410D01*
X147504516Y-87047599D01*
X147503855Y-87045184D01*
X147470521Y-86978517D01*
X147465614Y-86972195D01*
X147461155Y-86965521D01*
X147427821Y-86932188D01*
X147421155Y-86927734D01*
X147414827Y-86922823D01*
X147348161Y-86889489D01*
X147345745Y-86888827D01*
X147344934Y-86888016D01*
X147337072Y-86886452D01*
X147329345Y-86884336D01*
X147328256Y-86884698D01*
X147325800Y-86884210D01*
X147259133Y-86884210D01*
X147256676Y-86884698D01*
X147255588Y-86884336D01*
X147247860Y-86886452D01*
X147239999Y-86888016D01*
X147239187Y-86888827D01*
X147236772Y-86889489D01*
X147170105Y-86922823D01*
X147163770Y-86927738D01*
X147157111Y-86932189D01*
X147123778Y-86965522D01*
X147119327Y-86972181D01*
X147114412Y-86978516D01*
X147081079Y-87045184D01*
X147079633Y-87050462D01*
X147077293Y-87055417D01*
X147045289Y-87183426D01*
X147018040Y-87237926D01*
X146996183Y-87259783D01*
X146947331Y-87284210D01*
X146904269Y-87284210D01*
X146855418Y-87259784D01*
X146833558Y-87237925D01*
X146809133Y-87189074D01*
X146809133Y-87042322D01*
X146839900Y-86950021D01*
X146842340Y-86930666D01*
X146825226Y-86896437D01*
X146788922Y-86884336D01*
X146754693Y-86901450D01*
X146745032Y-86918399D01*
X146711699Y-87018399D01*
X146710696Y-87026347D01*
X146709133Y-87034210D01*
X146631355Y-87034210D01*
X146631355Y-86434210D01*
X146942466Y-86434210D01*
X146942466Y-86567543D01*
X146942954Y-86569999D01*
X146942592Y-86571088D01*
X146944708Y-86578815D01*
X146946272Y-86586677D01*
X146947083Y-86587488D01*
X146947745Y-86589904D01*
X146981079Y-86656571D01*
X146987181Y-86664434D01*
X146988027Y-86666970D01*
X146990849Y-86669160D01*
X146993040Y-86671983D01*
X146995575Y-86672828D01*
X147003439Y-86678931D01*
X147070105Y-86712264D01*
X147072520Y-86712925D01*
X147073332Y-86713737D01*
X147081196Y-86715301D01*
X147088922Y-86717417D01*
X147090009Y-86717054D01*
X147092466Y-86717543D01*
X147359133Y-86717543D01*
X147361589Y-86717054D01*
X147362677Y-86717417D01*
X147370401Y-86715301D01*
X147378267Y-86713737D01*
X147379078Y-86712925D01*
X147381493Y-86712264D01*
X147448161Y-86678931D01*
X147456026Y-86672826D01*
X147458560Y-86671982D01*
X147460748Y-86669162D01*
X147463573Y-86666970D01*
X147464418Y-86664433D01*
X147470521Y-86656570D01*
X147503855Y-86589903D01*
X147504516Y-86587487D01*
X147505327Y-86586677D01*
X147506890Y-86578816D01*
X147509007Y-86571087D01*
X147508644Y-86569999D01*
X147509133Y-86567543D01*
X147509133Y-86434210D01*
X147508644Y-86431753D01*
X147509007Y-86430666D01*
X147506890Y-86422936D01*
X147505327Y-86415076D01*
X147504516Y-86414265D01*
X147503855Y-86411850D01*
X147470521Y-86345183D01*
X147458560Y-86329771D01*
X147422256Y-86317669D01*
X147388028Y-86334783D01*
X147375926Y-86371087D01*
X147381079Y-86389903D01*
X147409133Y-86446012D01*
X147409133Y-86555740D01*
X147388532Y-86596941D01*
X147347331Y-86617543D01*
X147266790Y-86617543D01*
X147208162Y-86324404D01*
X147205327Y-86317580D01*
X147205327Y-86315076D01*
X147203547Y-86313296D01*
X147200677Y-86306388D01*
X147188563Y-86298312D01*
X147178267Y-86288016D01*
X147170929Y-86286556D01*
X147168836Y-86285161D01*
X147166381Y-86285651D01*
X147159133Y-86284210D01*
X147092466Y-86284210D01*
X147090009Y-86284698D01*
X147088922Y-86284336D01*
X147081196Y-86286451D01*
X147073332Y-86288016D01*
X147072520Y-86288827D01*
X147070105Y-86289489D01*
X147003439Y-86322822D01*
X146995575Y-86328924D01*
X146993040Y-86329770D01*
X146990849Y-86332592D01*
X146988027Y-86334783D01*
X146987181Y-86337318D01*
X146981079Y-86345182D01*
X146947745Y-86411849D01*
X146947083Y-86414264D01*
X146946272Y-86415076D01*
X146944708Y-86422937D01*
X146942592Y-86430665D01*
X146942954Y-86431753D01*
X146942466Y-86434210D01*
X146631355Y-86434210D01*
X146631355Y-86015076D01*
X146712939Y-86015076D01*
X146712939Y-86053344D01*
X146739999Y-86080404D01*
X146759133Y-86084210D01*
X146942466Y-86084210D01*
X146942466Y-86134210D01*
X146946272Y-86153344D01*
X146973332Y-86180404D01*
X147011600Y-86180404D01*
X147038660Y-86153344D01*
X147042466Y-86134210D01*
X147042466Y-86084210D01*
X147359133Y-86084210D01*
X147361589Y-86083721D01*
X147362677Y-86084084D01*
X147370401Y-86081968D01*
X147378267Y-86080404D01*
X147379078Y-86079592D01*
X147381493Y-86078931D01*
X147448161Y-86045598D01*
X147456026Y-86039493D01*
X147458560Y-86038649D01*
X147460748Y-86035829D01*
X147463573Y-86033637D01*
X147464418Y-86031100D01*
X147470521Y-86023237D01*
X147503855Y-85956570D01*
X147504516Y-85954154D01*
X147505327Y-85953344D01*
X147506890Y-85945483D01*
X147509007Y-85937754D01*
X147508644Y-85936666D01*
X147509133Y-85934210D01*
X147509133Y-85867543D01*
X147505327Y-85848409D01*
X147478267Y-85821349D01*
X147439999Y-85821349D01*
X147412939Y-85848409D01*
X147409133Y-85867543D01*
X147409133Y-85922407D01*
X147388532Y-85963608D01*
X147347331Y-85984210D01*
X147042466Y-85984210D01*
X147042466Y-85867543D01*
X147038660Y-85848409D01*
X147011600Y-85821349D01*
X146973332Y-85821349D01*
X146946272Y-85848409D01*
X146942466Y-85867543D01*
X146942466Y-85984210D01*
X146759133Y-85984210D01*
X146739999Y-85988016D01*
X146712939Y-86015076D01*
X146631355Y-86015076D01*
X146631355Y-85743571D01*
X147586911Y-85743571D01*
X147586911Y-88995196D01*
G37*
D12*
G36*
X140920484Y-116144329D02*
G01*
X140972550Y-116170362D01*
X141022318Y-116220130D01*
X141048093Y-116297454D01*
X141048093Y-116394386D01*
X140468093Y-116394386D01*
X140468093Y-116297455D01*
X140493868Y-116220130D01*
X140543633Y-116170364D01*
X140595701Y-116144330D01*
X140715481Y-116114386D01*
X140800705Y-116114386D01*
X140920484Y-116144329D01*
G37*
G36*
X140920484Y-115444329D02*
G01*
X140972550Y-115470362D01*
X141022318Y-115520130D01*
X141048093Y-115597454D01*
X141048093Y-115694386D01*
X140468093Y-115694386D01*
X140468093Y-115597455D01*
X140493868Y-115520130D01*
X140543633Y-115470364D01*
X140595701Y-115444330D01*
X140715481Y-115414386D01*
X140800705Y-115414386D01*
X140920484Y-115444329D01*
G37*
G36*
X141245871Y-117292013D02*
G01*
X140270315Y-117292013D01*
X140270315Y-116691972D01*
X140348244Y-116691972D01*
X140368781Y-116733046D01*
X140389119Y-116744640D01*
X140918356Y-116921053D01*
X140389119Y-117097465D01*
X140368781Y-117109059D01*
X140348244Y-117150133D01*
X140362766Y-117193698D01*
X140403840Y-117214235D01*
X140427067Y-117211307D01*
X141127067Y-116977974D01*
X141147405Y-116966380D01*
X141149410Y-116962369D01*
X141153420Y-116960365D01*
X141159434Y-116942322D01*
X141167943Y-116925306D01*
X141166524Y-116921051D01*
X141167942Y-116916800D01*
X141159438Y-116899792D01*
X141153421Y-116881741D01*
X141149409Y-116879735D01*
X141147405Y-116875726D01*
X141127067Y-116864132D01*
X140427067Y-116630798D01*
X140403840Y-116627870D01*
X140362766Y-116648407D01*
X140348244Y-116691972D01*
X140270315Y-116691972D01*
X140270315Y-116287719D01*
X140348093Y-116287719D01*
X140348093Y-116454386D01*
X140352660Y-116477347D01*
X140385132Y-116509819D01*
X140408093Y-116514386D01*
X141108093Y-116514386D01*
X141131054Y-116509819D01*
X141163526Y-116477347D01*
X141168093Y-116454386D01*
X141168093Y-116287719D01*
X141166216Y-116278285D01*
X141165014Y-116268745D01*
X141131681Y-116168746D01*
X141130193Y-116166135D01*
X141130193Y-116164758D01*
X141124852Y-116156765D01*
X141120088Y-116148407D01*
X141118854Y-116147790D01*
X141117186Y-116145293D01*
X141050519Y-116078626D01*
X141042522Y-116073282D01*
X141034926Y-116067387D01*
X140968259Y-116034054D01*
X140961923Y-116032318D01*
X140955978Y-116029510D01*
X140822645Y-115996177D01*
X140815300Y-115995819D01*
X140808093Y-115994386D01*
X140708093Y-115994386D01*
X140700881Y-115995820D01*
X140693541Y-115996178D01*
X140560208Y-116029510D01*
X140554262Y-116032318D01*
X140547927Y-116034054D01*
X140481260Y-116067388D01*
X140473666Y-116073281D01*
X140465667Y-116078626D01*
X140399000Y-116145292D01*
X140397330Y-116147790D01*
X140396098Y-116148407D01*
X140391337Y-116156759D01*
X140385993Y-116164757D01*
X140385993Y-116166135D01*
X140384505Y-116168746D01*
X140351172Y-116268746D01*
X140349969Y-116278284D01*
X140348093Y-116287719D01*
X140270315Y-116287719D01*
X140270315Y-115587719D01*
X140348093Y-115587719D01*
X140348093Y-115754386D01*
X140352660Y-115777347D01*
X140385132Y-115809819D01*
X140408093Y-115814386D01*
X141108093Y-115814386D01*
X141131054Y-115809819D01*
X141163526Y-115777347D01*
X141168093Y-115754386D01*
X141168093Y-115587719D01*
X141166216Y-115578285D01*
X141165014Y-115568745D01*
X141131681Y-115468746D01*
X141130193Y-115466135D01*
X141130193Y-115464758D01*
X141124852Y-115456765D01*
X141120088Y-115448407D01*
X141118854Y-115447790D01*
X141117186Y-115445293D01*
X141050519Y-115378626D01*
X141042522Y-115373282D01*
X141034926Y-115367387D01*
X140968259Y-115334054D01*
X140961923Y-115332318D01*
X140955978Y-115329510D01*
X140822645Y-115296177D01*
X140815300Y-115295819D01*
X140808093Y-115294386D01*
X140708093Y-115294386D01*
X140700881Y-115295820D01*
X140693541Y-115296178D01*
X140560208Y-115329510D01*
X140554262Y-115332318D01*
X140547927Y-115334054D01*
X140481260Y-115367388D01*
X140473666Y-115373281D01*
X140465667Y-115378626D01*
X140399000Y-115445292D01*
X140397330Y-115447790D01*
X140396098Y-115448407D01*
X140391337Y-115456759D01*
X140385993Y-115464757D01*
X140385993Y-115466135D01*
X140384505Y-115468746D01*
X140351172Y-115568746D01*
X140349969Y-115578284D01*
X140348093Y-115587719D01*
X140270315Y-115587719D01*
X140270315Y-115216608D01*
X141245871Y-115216608D01*
X141245871Y-117292013D01*
G37*
G36*
X146820484Y-116144329D02*
G01*
X146872550Y-116170362D01*
X146922318Y-116220130D01*
X146948093Y-116297454D01*
X146948093Y-116394386D01*
X146368093Y-116394386D01*
X146368093Y-116297455D01*
X146393868Y-116220130D01*
X146443633Y-116170364D01*
X146495701Y-116144330D01*
X146615481Y-116114386D01*
X146700705Y-116114386D01*
X146820484Y-116144329D01*
G37*
G36*
X146820484Y-115444329D02*
G01*
X146872550Y-115470362D01*
X146922318Y-115520130D01*
X146948093Y-115597454D01*
X146948093Y-115694386D01*
X146368093Y-115694386D01*
X146368093Y-115597455D01*
X146393868Y-115520130D01*
X146443633Y-115470364D01*
X146495701Y-115444330D01*
X146615481Y-115414386D01*
X146700705Y-115414386D01*
X146820484Y-115444329D01*
G37*
G36*
X147145871Y-117292013D02*
G01*
X146170315Y-117292013D01*
X146170315Y-116691972D01*
X146248244Y-116691972D01*
X146268781Y-116733046D01*
X146289119Y-116744640D01*
X146818356Y-116921053D01*
X146289119Y-117097465D01*
X146268781Y-117109059D01*
X146248244Y-117150133D01*
X146262766Y-117193698D01*
X146303840Y-117214235D01*
X146327067Y-117211307D01*
X147027067Y-116977974D01*
X147047405Y-116966380D01*
X147049410Y-116962369D01*
X147053420Y-116960365D01*
X147059434Y-116942322D01*
X147067943Y-116925306D01*
X147066524Y-116921051D01*
X147067942Y-116916800D01*
X147059438Y-116899792D01*
X147053421Y-116881741D01*
X147049409Y-116879735D01*
X147047405Y-116875726D01*
X147027067Y-116864132D01*
X146327067Y-116630798D01*
X146303840Y-116627870D01*
X146262766Y-116648407D01*
X146248244Y-116691972D01*
X146170315Y-116691972D01*
X146170315Y-116287719D01*
X146248093Y-116287719D01*
X146248093Y-116454386D01*
X146252660Y-116477347D01*
X146285132Y-116509819D01*
X146308093Y-116514386D01*
X147008093Y-116514386D01*
X147031054Y-116509819D01*
X147063526Y-116477347D01*
X147068093Y-116454386D01*
X147068093Y-116287719D01*
X147066216Y-116278285D01*
X147065014Y-116268745D01*
X147031681Y-116168746D01*
X147030193Y-116166135D01*
X147030193Y-116164758D01*
X147024852Y-116156765D01*
X147020088Y-116148407D01*
X147018854Y-116147790D01*
X147017186Y-116145293D01*
X146950519Y-116078626D01*
X146942522Y-116073282D01*
X146934926Y-116067387D01*
X146868259Y-116034054D01*
X146861923Y-116032318D01*
X146855978Y-116029510D01*
X146722645Y-115996177D01*
X146715300Y-115995819D01*
X146708093Y-115994386D01*
X146608093Y-115994386D01*
X146600881Y-115995820D01*
X146593541Y-115996178D01*
X146460208Y-116029510D01*
X146454262Y-116032318D01*
X146447927Y-116034054D01*
X146381260Y-116067388D01*
X146373666Y-116073281D01*
X146365667Y-116078626D01*
X146299000Y-116145292D01*
X146297330Y-116147790D01*
X146296098Y-116148407D01*
X146291337Y-116156759D01*
X146285993Y-116164757D01*
X146285993Y-116166135D01*
X146284505Y-116168746D01*
X146251172Y-116268746D01*
X146249969Y-116278284D01*
X146248093Y-116287719D01*
X146170315Y-116287719D01*
X146170315Y-115587719D01*
X146248093Y-115587719D01*
X146248093Y-115754386D01*
X146252660Y-115777347D01*
X146285132Y-115809819D01*
X146308093Y-115814386D01*
X147008093Y-115814386D01*
X147031054Y-115809819D01*
X147063526Y-115777347D01*
X147068093Y-115754386D01*
X147068093Y-115587719D01*
X147066216Y-115578285D01*
X147065014Y-115568745D01*
X147031681Y-115468746D01*
X147030193Y-115466135D01*
X147030193Y-115464758D01*
X147024852Y-115456765D01*
X147020088Y-115448407D01*
X147018854Y-115447790D01*
X147017186Y-115445293D01*
X146950519Y-115378626D01*
X146942522Y-115373282D01*
X146934926Y-115367387D01*
X146868259Y-115334054D01*
X146861923Y-115332318D01*
X146855978Y-115329510D01*
X146722645Y-115296177D01*
X146715300Y-115295819D01*
X146708093Y-115294386D01*
X146608093Y-115294386D01*
X146600881Y-115295820D01*
X146593541Y-115296178D01*
X146460208Y-115329510D01*
X146454262Y-115332318D01*
X146447927Y-115334054D01*
X146381260Y-115367388D01*
X146373666Y-115373281D01*
X146365667Y-115378626D01*
X146299000Y-115445292D01*
X146297330Y-115447790D01*
X146296098Y-115448407D01*
X146291337Y-115456759D01*
X146285993Y-115464757D01*
X146285993Y-115466135D01*
X146284505Y-115468746D01*
X146251172Y-115568746D01*
X146249969Y-115578284D01*
X146248093Y-115587719D01*
X146170315Y-115587719D01*
X146170315Y-115216608D01*
X147145871Y-115216608D01*
X147145871Y-117292013D01*
G37*
D10*
X152772931Y-109057508D02*
X152972931Y-109657508D01*
X152972931Y-109657508D02*
X153172931Y-109057508D01*
X153601503Y-109628937D02*
X153544360Y-109657508D01*
X153544360Y-109657508D02*
X153430075Y-109657508D01*
X153430075Y-109657508D02*
X153372932Y-109628937D01*
X153372932Y-109628937D02*
X153344360Y-109571794D01*
X153344360Y-109571794D02*
X153344360Y-109343222D01*
X153344360Y-109343222D02*
X153372932Y-109286079D01*
X153372932Y-109286079D02*
X153430075Y-109257508D01*
X153430075Y-109257508D02*
X153544360Y-109257508D01*
X153544360Y-109257508D02*
X153601503Y-109286079D01*
X153601503Y-109286079D02*
X153630075Y-109343222D01*
X153630075Y-109343222D02*
X153630075Y-109400365D01*
X153630075Y-109400365D02*
X153344360Y-109457508D01*
X153887218Y-109657508D02*
X153887218Y-109257508D01*
X153887218Y-109371794D02*
X153915789Y-109314651D01*
X153915789Y-109314651D02*
X153944361Y-109286079D01*
X153944361Y-109286079D02*
X154001503Y-109257508D01*
X154001503Y-109257508D02*
X154058646Y-109257508D01*
X154230075Y-109628937D02*
X154287218Y-109657508D01*
X154287218Y-109657508D02*
X154401504Y-109657508D01*
X154401504Y-109657508D02*
X154458647Y-109628937D01*
X154458647Y-109628937D02*
X154487218Y-109571794D01*
X154487218Y-109571794D02*
X154487218Y-109543222D01*
X154487218Y-109543222D02*
X154458647Y-109486079D01*
X154458647Y-109486079D02*
X154401504Y-109457508D01*
X154401504Y-109457508D02*
X154315790Y-109457508D01*
X154315790Y-109457508D02*
X154258647Y-109428937D01*
X154258647Y-109428937D02*
X154230075Y-109371794D01*
X154230075Y-109371794D02*
X154230075Y-109343222D01*
X154230075Y-109343222D02*
X154258647Y-109286079D01*
X154258647Y-109286079D02*
X154315790Y-109257508D01*
X154315790Y-109257508D02*
X154401504Y-109257508D01*
X154401504Y-109257508D02*
X154458647Y-109286079D01*
X154744361Y-109657508D02*
X154744361Y-109257508D01*
X154744361Y-109057508D02*
X154715789Y-109086079D01*
X154715789Y-109086079D02*
X154744361Y-109114651D01*
X154744361Y-109114651D02*
X154772932Y-109086079D01*
X154772932Y-109086079D02*
X154744361Y-109057508D01*
X154744361Y-109057508D02*
X154744361Y-109114651D01*
X155115789Y-109657508D02*
X155058646Y-109628937D01*
X155058646Y-109628937D02*
X155030075Y-109600365D01*
X155030075Y-109600365D02*
X155001503Y-109543222D01*
X155001503Y-109543222D02*
X155001503Y-109371794D01*
X155001503Y-109371794D02*
X155030075Y-109314651D01*
X155030075Y-109314651D02*
X155058646Y-109286079D01*
X155058646Y-109286079D02*
X155115789Y-109257508D01*
X155115789Y-109257508D02*
X155201503Y-109257508D01*
X155201503Y-109257508D02*
X155258646Y-109286079D01*
X155258646Y-109286079D02*
X155287218Y-109314651D01*
X155287218Y-109314651D02*
X155315789Y-109371794D01*
X155315789Y-109371794D02*
X155315789Y-109543222D01*
X155315789Y-109543222D02*
X155287218Y-109600365D01*
X155287218Y-109600365D02*
X155258646Y-109628937D01*
X155258646Y-109628937D02*
X155201503Y-109657508D01*
X155201503Y-109657508D02*
X155115789Y-109657508D01*
X155572932Y-109257508D02*
X155572932Y-109657508D01*
X155572932Y-109314651D02*
X155601503Y-109286079D01*
X155601503Y-109286079D02*
X155658646Y-109257508D01*
X155658646Y-109257508D02*
X155744360Y-109257508D01*
X155744360Y-109257508D02*
X155801503Y-109286079D01*
X155801503Y-109286079D02*
X155830075Y-109343222D01*
X155830075Y-109343222D02*
X155830075Y-109657508D01*
X153172931Y-110623474D02*
X152830074Y-110623474D01*
X153001503Y-110623474D02*
X153001503Y-110023474D01*
X153001503Y-110023474D02*
X152944360Y-110109188D01*
X152944360Y-110109188D02*
X152887217Y-110166331D01*
X152887217Y-110166331D02*
X152830074Y-110194903D01*
X153544360Y-110023474D02*
X153601503Y-110023474D01*
X153601503Y-110023474D02*
X153658646Y-110052045D01*
X153658646Y-110052045D02*
X153687218Y-110080617D01*
X153687218Y-110080617D02*
X153715789Y-110137760D01*
X153715789Y-110137760D02*
X153744360Y-110252045D01*
X153744360Y-110252045D02*
X153744360Y-110394903D01*
X153744360Y-110394903D02*
X153715789Y-110509188D01*
X153715789Y-110509188D02*
X153687218Y-110566331D01*
X153687218Y-110566331D02*
X153658646Y-110594903D01*
X153658646Y-110594903D02*
X153601503Y-110623474D01*
X153601503Y-110623474D02*
X153544360Y-110623474D01*
X153544360Y-110623474D02*
X153487218Y-110594903D01*
X153487218Y-110594903D02*
X153458646Y-110566331D01*
X153458646Y-110566331D02*
X153430075Y-110509188D01*
X153430075Y-110509188D02*
X153401503Y-110394903D01*
X153401503Y-110394903D02*
X153401503Y-110252045D01*
X153401503Y-110252045D02*
X153430075Y-110137760D01*
X153430075Y-110137760D02*
X153458646Y-110080617D01*
X153458646Y-110080617D02*
X153487218Y-110052045D01*
X153487218Y-110052045D02*
X153544360Y-110023474D01*
X154344361Y-110623474D02*
X154144361Y-110337760D01*
X154001504Y-110623474D02*
X154001504Y-110023474D01*
X154001504Y-110023474D02*
X154230075Y-110023474D01*
X154230075Y-110023474D02*
X154287218Y-110052045D01*
X154287218Y-110052045D02*
X154315789Y-110080617D01*
X154315789Y-110080617D02*
X154344361Y-110137760D01*
X154344361Y-110137760D02*
X154344361Y-110223474D01*
X154344361Y-110223474D02*
X154315789Y-110280617D01*
X154315789Y-110280617D02*
X154287218Y-110309188D01*
X154287218Y-110309188D02*
X154230075Y-110337760D01*
X154230075Y-110337760D02*
X154001504Y-110337760D01*
X156058647Y-110623474D02*
X156001504Y-110594903D01*
X156001504Y-110594903D02*
X155972933Y-110566331D01*
X155972933Y-110566331D02*
X155944361Y-110509188D01*
X155944361Y-110509188D02*
X155944361Y-110337760D01*
X155944361Y-110337760D02*
X155972933Y-110280617D01*
X155972933Y-110280617D02*
X156001504Y-110252045D01*
X156001504Y-110252045D02*
X156058647Y-110223474D01*
X156058647Y-110223474D02*
X156144361Y-110223474D01*
X156144361Y-110223474D02*
X156201504Y-110252045D01*
X156201504Y-110252045D02*
X156230076Y-110280617D01*
X156230076Y-110280617D02*
X156258647Y-110337760D01*
X156258647Y-110337760D02*
X156258647Y-110509188D01*
X156258647Y-110509188D02*
X156230076Y-110566331D01*
X156230076Y-110566331D02*
X156201504Y-110594903D01*
X156201504Y-110594903D02*
X156144361Y-110623474D01*
X156144361Y-110623474D02*
X156058647Y-110623474D01*
X153172931Y-111589440D02*
X152830074Y-111589440D01*
X153001503Y-111589440D02*
X153001503Y-110989440D01*
X153001503Y-110989440D02*
X152944360Y-111075154D01*
X152944360Y-111075154D02*
X152887217Y-111132297D01*
X152887217Y-111132297D02*
X152830074Y-111160869D01*
X153544360Y-110989440D02*
X153601503Y-110989440D01*
X153601503Y-110989440D02*
X153658646Y-111018011D01*
X153658646Y-111018011D02*
X153687218Y-111046583D01*
X153687218Y-111046583D02*
X153715789Y-111103726D01*
X153715789Y-111103726D02*
X153744360Y-111218011D01*
X153744360Y-111218011D02*
X153744360Y-111360869D01*
X153744360Y-111360869D02*
X153715789Y-111475154D01*
X153715789Y-111475154D02*
X153687218Y-111532297D01*
X153687218Y-111532297D02*
X153658646Y-111560869D01*
X153658646Y-111560869D02*
X153601503Y-111589440D01*
X153601503Y-111589440D02*
X153544360Y-111589440D01*
X153544360Y-111589440D02*
X153487218Y-111560869D01*
X153487218Y-111560869D02*
X153458646Y-111532297D01*
X153458646Y-111532297D02*
X153430075Y-111475154D01*
X153430075Y-111475154D02*
X153401503Y-111360869D01*
X153401503Y-111360869D02*
X153401503Y-111218011D01*
X153401503Y-111218011D02*
X153430075Y-111103726D01*
X153430075Y-111103726D02*
X153458646Y-111046583D01*
X153458646Y-111046583D02*
X153487218Y-111018011D01*
X153487218Y-111018011D02*
X153544360Y-110989440D01*
X154115789Y-110989440D02*
X154172932Y-110989440D01*
X154172932Y-110989440D02*
X154230075Y-111018011D01*
X154230075Y-111018011D02*
X154258647Y-111046583D01*
X154258647Y-111046583D02*
X154287218Y-111103726D01*
X154287218Y-111103726D02*
X154315789Y-111218011D01*
X154315789Y-111218011D02*
X154315789Y-111360869D01*
X154315789Y-111360869D02*
X154287218Y-111475154D01*
X154287218Y-111475154D02*
X154258647Y-111532297D01*
X154258647Y-111532297D02*
X154230075Y-111560869D01*
X154230075Y-111560869D02*
X154172932Y-111589440D01*
X154172932Y-111589440D02*
X154115789Y-111589440D01*
X154115789Y-111589440D02*
X154058647Y-111560869D01*
X154058647Y-111560869D02*
X154030075Y-111532297D01*
X154030075Y-111532297D02*
X154001504Y-111475154D01*
X154001504Y-111475154D02*
X153972932Y-111360869D01*
X153972932Y-111360869D02*
X153972932Y-111218011D01*
X153972932Y-111218011D02*
X154001504Y-111103726D01*
X154001504Y-111103726D02*
X154030075Y-111046583D01*
X154030075Y-111046583D02*
X154058647Y-111018011D01*
X154058647Y-111018011D02*
X154115789Y-110989440D01*
X154915790Y-111589440D02*
X154715790Y-111303726D01*
X154572933Y-111589440D02*
X154572933Y-110989440D01*
X154572933Y-110989440D02*
X154801504Y-110989440D01*
X154801504Y-110989440D02*
X154858647Y-111018011D01*
X154858647Y-111018011D02*
X154887218Y-111046583D01*
X154887218Y-111046583D02*
X154915790Y-111103726D01*
X154915790Y-111103726D02*
X154915790Y-111189440D01*
X154915790Y-111189440D02*
X154887218Y-111246583D01*
X154887218Y-111246583D02*
X154858647Y-111275154D01*
X154858647Y-111275154D02*
X154801504Y-111303726D01*
X154801504Y-111303726D02*
X154572933Y-111303726D01*
X156172933Y-111589440D02*
X156115790Y-111560869D01*
X156115790Y-111560869D02*
X156087219Y-111532297D01*
X156087219Y-111532297D02*
X156058647Y-111475154D01*
X156058647Y-111475154D02*
X156058647Y-111303726D01*
X156058647Y-111303726D02*
X156087219Y-111246583D01*
X156087219Y-111246583D02*
X156115790Y-111218011D01*
X156115790Y-111218011D02*
X156172933Y-111189440D01*
X156172933Y-111189440D02*
X156258647Y-111189440D01*
X156258647Y-111189440D02*
X156315790Y-111218011D01*
X156315790Y-111218011D02*
X156344362Y-111246583D01*
X156344362Y-111246583D02*
X156372933Y-111303726D01*
X156372933Y-111303726D02*
X156372933Y-111475154D01*
X156372933Y-111475154D02*
X156344362Y-111532297D01*
X156344362Y-111532297D02*
X156315790Y-111560869D01*
X156315790Y-111560869D02*
X156258647Y-111589440D01*
X156258647Y-111589440D02*
X156172933Y-111589440D01*
X152858646Y-112555406D02*
X152858646Y-111955406D01*
X152858646Y-112241120D02*
X153201503Y-112241120D01*
X153201503Y-112555406D02*
X153201503Y-111955406D01*
X153487217Y-112555406D02*
X153487217Y-112155406D01*
X153487217Y-111955406D02*
X153458645Y-111983977D01*
X153458645Y-111983977D02*
X153487217Y-112012549D01*
X153487217Y-112012549D02*
X153515788Y-111983977D01*
X153515788Y-111983977D02*
X153487217Y-111955406D01*
X153487217Y-111955406D02*
X153487217Y-112012549D01*
X154030074Y-112155406D02*
X154030074Y-112641120D01*
X154030074Y-112641120D02*
X154001502Y-112698263D01*
X154001502Y-112698263D02*
X153972931Y-112726835D01*
X153972931Y-112726835D02*
X153915788Y-112755406D01*
X153915788Y-112755406D02*
X153830074Y-112755406D01*
X153830074Y-112755406D02*
X153772931Y-112726835D01*
X154030074Y-112526835D02*
X153972931Y-112555406D01*
X153972931Y-112555406D02*
X153858645Y-112555406D01*
X153858645Y-112555406D02*
X153801502Y-112526835D01*
X153801502Y-112526835D02*
X153772931Y-112498263D01*
X153772931Y-112498263D02*
X153744359Y-112441120D01*
X153744359Y-112441120D02*
X153744359Y-112269692D01*
X153744359Y-112269692D02*
X153772931Y-112212549D01*
X153772931Y-112212549D02*
X153801502Y-112183977D01*
X153801502Y-112183977D02*
X153858645Y-112155406D01*
X153858645Y-112155406D02*
X153972931Y-112155406D01*
X153972931Y-112155406D02*
X154030074Y-112183977D01*
X154315788Y-112555406D02*
X154315788Y-111955406D01*
X154572931Y-112555406D02*
X154572931Y-112241120D01*
X154572931Y-112241120D02*
X154544359Y-112183977D01*
X154544359Y-112183977D02*
X154487216Y-112155406D01*
X154487216Y-112155406D02*
X154401502Y-112155406D01*
X154401502Y-112155406D02*
X154344359Y-112183977D01*
X154344359Y-112183977D02*
X154315788Y-112212549D01*
X154858645Y-112555406D02*
X154858645Y-111955406D01*
X156144359Y-112555406D02*
X156087216Y-112526835D01*
X156087216Y-112526835D02*
X156058645Y-112498263D01*
X156058645Y-112498263D02*
X156030073Y-112441120D01*
X156030073Y-112441120D02*
X156030073Y-112269692D01*
X156030073Y-112269692D02*
X156058645Y-112212549D01*
X156058645Y-112212549D02*
X156087216Y-112183977D01*
X156087216Y-112183977D02*
X156144359Y-112155406D01*
X156144359Y-112155406D02*
X156230073Y-112155406D01*
X156230073Y-112155406D02*
X156287216Y-112183977D01*
X156287216Y-112183977D02*
X156315788Y-112212549D01*
X156315788Y-112212549D02*
X156344359Y-112269692D01*
X156344359Y-112269692D02*
X156344359Y-112441120D01*
X156344359Y-112441120D02*
X156315788Y-112498263D01*
X156315788Y-112498263D02*
X156287216Y-112526835D01*
X156287216Y-112526835D02*
X156230073Y-112555406D01*
X156230073Y-112555406D02*
X156144359Y-112555406D01*
X153144360Y-113521372D02*
X152858646Y-113521372D01*
X152858646Y-113521372D02*
X152858646Y-112921372D01*
X153430074Y-113521372D02*
X153372931Y-113492801D01*
X153372931Y-113492801D02*
X153344360Y-113464229D01*
X153344360Y-113464229D02*
X153315788Y-113407086D01*
X153315788Y-113407086D02*
X153315788Y-113235658D01*
X153315788Y-113235658D02*
X153344360Y-113178515D01*
X153344360Y-113178515D02*
X153372931Y-113149943D01*
X153372931Y-113149943D02*
X153430074Y-113121372D01*
X153430074Y-113121372D02*
X153515788Y-113121372D01*
X153515788Y-113121372D02*
X153572931Y-113149943D01*
X153572931Y-113149943D02*
X153601503Y-113178515D01*
X153601503Y-113178515D02*
X153630074Y-113235658D01*
X153630074Y-113235658D02*
X153630074Y-113407086D01*
X153630074Y-113407086D02*
X153601503Y-113464229D01*
X153601503Y-113464229D02*
X153572931Y-113492801D01*
X153572931Y-113492801D02*
X153515788Y-113521372D01*
X153515788Y-113521372D02*
X153430074Y-113521372D01*
X153830074Y-113121372D02*
X153944360Y-113521372D01*
X153944360Y-113521372D02*
X154058645Y-113235658D01*
X154058645Y-113235658D02*
X154172931Y-113521372D01*
X154172931Y-113521372D02*
X154287217Y-113121372D01*
X154515788Y-113521372D02*
X154515788Y-112921372D01*
X156258645Y-113521372D02*
X156201502Y-113492801D01*
X156201502Y-113492801D02*
X156172931Y-113464229D01*
X156172931Y-113464229D02*
X156144359Y-113407086D01*
X156144359Y-113407086D02*
X156144359Y-113235658D01*
X156144359Y-113235658D02*
X156172931Y-113178515D01*
X156172931Y-113178515D02*
X156201502Y-113149943D01*
X156201502Y-113149943D02*
X156258645Y-113121372D01*
X156258645Y-113121372D02*
X156344359Y-113121372D01*
X156344359Y-113121372D02*
X156401502Y-113149943D01*
X156401502Y-113149943D02*
X156430074Y-113178515D01*
X156430074Y-113178515D02*
X156458645Y-113235658D01*
X156458645Y-113235658D02*
X156458645Y-113407086D01*
X156458645Y-113407086D02*
X156430074Y-113464229D01*
X156430074Y-113464229D02*
X156401502Y-113492801D01*
X156401502Y-113492801D02*
X156344359Y-113521372D01*
X156344359Y-113521372D02*
X156258645Y-113521372D01*
D11*
X151154761Y-89954819D02*
X150821428Y-89478628D01*
X150583333Y-89954819D02*
X150583333Y-88954819D01*
X150583333Y-88954819D02*
X150964285Y-88954819D01*
X150964285Y-88954819D02*
X151059523Y-89002438D01*
X151059523Y-89002438D02*
X151107142Y-89050057D01*
X151107142Y-89050057D02*
X151154761Y-89145295D01*
X151154761Y-89145295D02*
X151154761Y-89288152D01*
X151154761Y-89288152D02*
X151107142Y-89383390D01*
X151107142Y-89383390D02*
X151059523Y-89431009D01*
X151059523Y-89431009D02*
X150964285Y-89478628D01*
X150964285Y-89478628D02*
X150583333Y-89478628D01*
X151440476Y-88954819D02*
X151773809Y-89954819D01*
X151773809Y-89954819D02*
X152107142Y-88954819D01*
X152964285Y-89954819D02*
X152392857Y-89954819D01*
X152678571Y-89954819D02*
X152678571Y-88954819D01*
X152678571Y-88954819D02*
X152583333Y-89097676D01*
X152583333Y-89097676D02*
X152488095Y-89192914D01*
X152488095Y-89192914D02*
X152392857Y-89240533D01*
X156254819Y-102166666D02*
X155778628Y-102499999D01*
X156254819Y-102738094D02*
X155254819Y-102738094D01*
X155254819Y-102738094D02*
X155254819Y-102357142D01*
X155254819Y-102357142D02*
X155302438Y-102261904D01*
X155302438Y-102261904D02*
X155350057Y-102214285D01*
X155350057Y-102214285D02*
X155445295Y-102166666D01*
X155445295Y-102166666D02*
X155588152Y-102166666D01*
X155588152Y-102166666D02*
X155683390Y-102214285D01*
X155683390Y-102214285D02*
X155731009Y-102261904D01*
X155731009Y-102261904D02*
X155778628Y-102357142D01*
X155778628Y-102357142D02*
X155778628Y-102738094D01*
X155350057Y-101785713D02*
X155302438Y-101738094D01*
X155302438Y-101738094D02*
X155254819Y-101642856D01*
X155254819Y-101642856D02*
X155254819Y-101404761D01*
X155254819Y-101404761D02*
X155302438Y-101309523D01*
X155302438Y-101309523D02*
X155350057Y-101261904D01*
X155350057Y-101261904D02*
X155445295Y-101214285D01*
X155445295Y-101214285D02*
X155540533Y-101214285D01*
X155540533Y-101214285D02*
X155683390Y-101261904D01*
X155683390Y-101261904D02*
X156254819Y-101833332D01*
X156254819Y-101833332D02*
X156254819Y-101214285D01*
X148550057Y-111495238D02*
X148502438Y-111590476D01*
X148502438Y-111590476D02*
X148407200Y-111685714D01*
X148407200Y-111685714D02*
X148264342Y-111828571D01*
X148264342Y-111828571D02*
X148216723Y-111923809D01*
X148216723Y-111923809D02*
X148216723Y-112019047D01*
X148454819Y-111971428D02*
X148407200Y-112066666D01*
X148407200Y-112066666D02*
X148311961Y-112161904D01*
X148311961Y-112161904D02*
X148121485Y-112209523D01*
X148121485Y-112209523D02*
X147788152Y-112209523D01*
X147788152Y-112209523D02*
X147597676Y-112161904D01*
X147597676Y-112161904D02*
X147502438Y-112066666D01*
X147502438Y-112066666D02*
X147454819Y-111971428D01*
X147454819Y-111971428D02*
X147454819Y-111780952D01*
X147454819Y-111780952D02*
X147502438Y-111685714D01*
X147502438Y-111685714D02*
X147597676Y-111590476D01*
X147597676Y-111590476D02*
X147788152Y-111542857D01*
X147788152Y-111542857D02*
X148121485Y-111542857D01*
X148121485Y-111542857D02*
X148311961Y-111590476D01*
X148311961Y-111590476D02*
X148407200Y-111685714D01*
X148407200Y-111685714D02*
X148454819Y-111780952D01*
X148454819Y-111780952D02*
X148454819Y-111971428D01*
X147454819Y-110638095D02*
X147454819Y-111114285D01*
X147454819Y-111114285D02*
X147931009Y-111161904D01*
X147931009Y-111161904D02*
X147883390Y-111114285D01*
X147883390Y-111114285D02*
X147835771Y-111019047D01*
X147835771Y-111019047D02*
X147835771Y-110780952D01*
X147835771Y-110780952D02*
X147883390Y-110685714D01*
X147883390Y-110685714D02*
X147931009Y-110638095D01*
X147931009Y-110638095D02*
X148026247Y-110590476D01*
X148026247Y-110590476D02*
X148264342Y-110590476D01*
X148264342Y-110590476D02*
X148359580Y-110638095D01*
X148359580Y-110638095D02*
X148407200Y-110685714D01*
X148407200Y-110685714D02*
X148454819Y-110780952D01*
X148454819Y-110780952D02*
X148454819Y-111019047D01*
X148454819Y-111019047D02*
X148407200Y-111114285D01*
X148407200Y-111114285D02*
X148359580Y-111161904D01*
X152054819Y-86633333D02*
X152769104Y-86633333D01*
X152769104Y-86633333D02*
X152911961Y-86680952D01*
X152911961Y-86680952D02*
X153007200Y-86776190D01*
X153007200Y-86776190D02*
X153054819Y-86919047D01*
X153054819Y-86919047D02*
X153054819Y-87014285D01*
X152054819Y-85680952D02*
X152054819Y-86157142D01*
X152054819Y-86157142D02*
X152531009Y-86204761D01*
X152531009Y-86204761D02*
X152483390Y-86157142D01*
X152483390Y-86157142D02*
X152435771Y-86061904D01*
X152435771Y-86061904D02*
X152435771Y-85823809D01*
X152435771Y-85823809D02*
X152483390Y-85728571D01*
X152483390Y-85728571D02*
X152531009Y-85680952D01*
X152531009Y-85680952D02*
X152626247Y-85633333D01*
X152626247Y-85633333D02*
X152864342Y-85633333D01*
X152864342Y-85633333D02*
X152959580Y-85680952D01*
X152959580Y-85680952D02*
X153007200Y-85728571D01*
X153007200Y-85728571D02*
X153054819Y-85823809D01*
X153054819Y-85823809D02*
X153054819Y-86061904D01*
X153054819Y-86061904D02*
X153007200Y-86157142D01*
X153007200Y-86157142D02*
X152959580Y-86204761D01*
X156204819Y-107338094D02*
X155204819Y-107338094D01*
X155204819Y-107338094D02*
X155204819Y-107099999D01*
X155204819Y-107099999D02*
X155252438Y-106957142D01*
X155252438Y-106957142D02*
X155347676Y-106861904D01*
X155347676Y-106861904D02*
X155442914Y-106814285D01*
X155442914Y-106814285D02*
X155633390Y-106766666D01*
X155633390Y-106766666D02*
X155776247Y-106766666D01*
X155776247Y-106766666D02*
X155966723Y-106814285D01*
X155966723Y-106814285D02*
X156061961Y-106861904D01*
X156061961Y-106861904D02*
X156157200Y-106957142D01*
X156157200Y-106957142D02*
X156204819Y-107099999D01*
X156204819Y-107099999D02*
X156204819Y-107338094D01*
X156204819Y-105814285D02*
X156204819Y-106385713D01*
X156204819Y-106099999D02*
X155204819Y-106099999D01*
X155204819Y-106099999D02*
X155347676Y-106195237D01*
X155347676Y-106195237D02*
X155442914Y-106290475D01*
X155442914Y-106290475D02*
X155490533Y-106385713D01*
X140354819Y-105716666D02*
X139878628Y-106049999D01*
X140354819Y-106288094D02*
X139354819Y-106288094D01*
X139354819Y-106288094D02*
X139354819Y-105907142D01*
X139354819Y-105907142D02*
X139402438Y-105811904D01*
X139402438Y-105811904D02*
X139450057Y-105764285D01*
X139450057Y-105764285D02*
X139545295Y-105716666D01*
X139545295Y-105716666D02*
X139688152Y-105716666D01*
X139688152Y-105716666D02*
X139783390Y-105764285D01*
X139783390Y-105764285D02*
X139831009Y-105811904D01*
X139831009Y-105811904D02*
X139878628Y-105907142D01*
X139878628Y-105907142D02*
X139878628Y-106288094D01*
X140354819Y-104764285D02*
X140354819Y-105335713D01*
X140354819Y-105049999D02*
X139354819Y-105049999D01*
X139354819Y-105049999D02*
X139497676Y-105145237D01*
X139497676Y-105145237D02*
X139592914Y-105240475D01*
X139592914Y-105240475D02*
X139640533Y-105335713D01*
X150504819Y-114083333D02*
X151219104Y-114083333D01*
X151219104Y-114083333D02*
X151361961Y-114130952D01*
X151361961Y-114130952D02*
X151457200Y-114226190D01*
X151457200Y-114226190D02*
X151504819Y-114369047D01*
X151504819Y-114369047D02*
X151504819Y-114464285D01*
X150504819Y-113178571D02*
X150504819Y-113369047D01*
X150504819Y-113369047D02*
X150552438Y-113464285D01*
X150552438Y-113464285D02*
X150600057Y-113511904D01*
X150600057Y-113511904D02*
X150742914Y-113607142D01*
X150742914Y-113607142D02*
X150933390Y-113654761D01*
X150933390Y-113654761D02*
X151314342Y-113654761D01*
X151314342Y-113654761D02*
X151409580Y-113607142D01*
X151409580Y-113607142D02*
X151457200Y-113559523D01*
X151457200Y-113559523D02*
X151504819Y-113464285D01*
X151504819Y-113464285D02*
X151504819Y-113273809D01*
X151504819Y-113273809D02*
X151457200Y-113178571D01*
X151457200Y-113178571D02*
X151409580Y-113130952D01*
X151409580Y-113130952D02*
X151314342Y-113083333D01*
X151314342Y-113083333D02*
X151076247Y-113083333D01*
X151076247Y-113083333D02*
X150981009Y-113130952D01*
X150981009Y-113130952D02*
X150933390Y-113178571D01*
X150933390Y-113178571D02*
X150885771Y-113273809D01*
X150885771Y-113273809D02*
X150885771Y-113464285D01*
X150885771Y-113464285D02*
X150933390Y-113559523D01*
X150933390Y-113559523D02*
X150981009Y-113607142D01*
X150981009Y-113607142D02*
X151076247Y-113654761D01*
X139804819Y-114083333D02*
X140519104Y-114083333D01*
X140519104Y-114083333D02*
X140661961Y-114130952D01*
X140661961Y-114130952D02*
X140757200Y-114226190D01*
X140757200Y-114226190D02*
X140804819Y-114369047D01*
X140804819Y-114369047D02*
X140804819Y-114464285D01*
X140804819Y-113083333D02*
X140804819Y-113654761D01*
X140804819Y-113369047D02*
X139804819Y-113369047D01*
X139804819Y-113369047D02*
X139947676Y-113464285D01*
X139947676Y-113464285D02*
X140042914Y-113559523D01*
X140042914Y-113559523D02*
X140090533Y-113654761D01*
X155804819Y-95233333D02*
X156519104Y-95233333D01*
X156519104Y-95233333D02*
X156661961Y-95280952D01*
X156661961Y-95280952D02*
X156757200Y-95376190D01*
X156757200Y-95376190D02*
X156804819Y-95519047D01*
X156804819Y-95519047D02*
X156804819Y-95614285D01*
X155804819Y-94852380D02*
X155804819Y-94233333D01*
X155804819Y-94233333D02*
X156185771Y-94566666D01*
X156185771Y-94566666D02*
X156185771Y-94423809D01*
X156185771Y-94423809D02*
X156233390Y-94328571D01*
X156233390Y-94328571D02*
X156281009Y-94280952D01*
X156281009Y-94280952D02*
X156376247Y-94233333D01*
X156376247Y-94233333D02*
X156614342Y-94233333D01*
X156614342Y-94233333D02*
X156709580Y-94280952D01*
X156709580Y-94280952D02*
X156757200Y-94328571D01*
X156757200Y-94328571D02*
X156804819Y-94423809D01*
X156804819Y-94423809D02*
X156804819Y-94709523D01*
X156804819Y-94709523D02*
X156757200Y-94804761D01*
X156757200Y-94804761D02*
X156709580Y-94852380D01*
X147350057Y-113295238D02*
X147302438Y-113390476D01*
X147302438Y-113390476D02*
X147207200Y-113485714D01*
X147207200Y-113485714D02*
X147064342Y-113628571D01*
X147064342Y-113628571D02*
X147016723Y-113723809D01*
X147016723Y-113723809D02*
X147016723Y-113819047D01*
X147254819Y-113771428D02*
X147207200Y-113866666D01*
X147207200Y-113866666D02*
X147111961Y-113961904D01*
X147111961Y-113961904D02*
X146921485Y-114009523D01*
X146921485Y-114009523D02*
X146588152Y-114009523D01*
X146588152Y-114009523D02*
X146397676Y-113961904D01*
X146397676Y-113961904D02*
X146302438Y-113866666D01*
X146302438Y-113866666D02*
X146254819Y-113771428D01*
X146254819Y-113771428D02*
X146254819Y-113580952D01*
X146254819Y-113580952D02*
X146302438Y-113485714D01*
X146302438Y-113485714D02*
X146397676Y-113390476D01*
X146397676Y-113390476D02*
X146588152Y-113342857D01*
X146588152Y-113342857D02*
X146921485Y-113342857D01*
X146921485Y-113342857D02*
X147111961Y-113390476D01*
X147111961Y-113390476D02*
X147207200Y-113485714D01*
X147207200Y-113485714D02*
X147254819Y-113580952D01*
X147254819Y-113580952D02*
X147254819Y-113771428D01*
X147254819Y-112390476D02*
X147254819Y-112961904D01*
X147254819Y-112676190D02*
X146254819Y-112676190D01*
X146254819Y-112676190D02*
X146397676Y-112771428D01*
X146397676Y-112771428D02*
X146492914Y-112866666D01*
X146492914Y-112866666D02*
X146540533Y-112961904D01*
X145454819Y-86733333D02*
X146169104Y-86733333D01*
X146169104Y-86733333D02*
X146311961Y-86780952D01*
X146311961Y-86780952D02*
X146407200Y-86876190D01*
X146407200Y-86876190D02*
X146454819Y-87019047D01*
X146454819Y-87019047D02*
X146454819Y-87114285D01*
X145788152Y-85828571D02*
X146454819Y-85828571D01*
X145407200Y-86066666D02*
X146121485Y-86304761D01*
X146121485Y-86304761D02*
X146121485Y-85685714D01*
D13*
X156223671Y-114800000D02*
X156652242Y-114800000D01*
X156652242Y-114800000D02*
X156737957Y-114828571D01*
X156737957Y-114828571D02*
X156795100Y-114885714D01*
X156795100Y-114885714D02*
X156823671Y-114971428D01*
X156823671Y-114971428D02*
X156823671Y-115028571D01*
X156280814Y-114542857D02*
X156252242Y-114514285D01*
X156252242Y-114514285D02*
X156223671Y-114457143D01*
X156223671Y-114457143D02*
X156223671Y-114314285D01*
X156223671Y-114314285D02*
X156252242Y-114257143D01*
X156252242Y-114257143D02*
X156280814Y-114228571D01*
X156280814Y-114228571D02*
X156337957Y-114200000D01*
X156337957Y-114200000D02*
X156395100Y-114200000D01*
X156395100Y-114200000D02*
X156480814Y-114228571D01*
X156480814Y-114228571D02*
X156823671Y-114571428D01*
X156823671Y-114571428D02*
X156823671Y-114200000D01*
D11*
X156254819Y-97766666D02*
X155778628Y-98099999D01*
X156254819Y-98338094D02*
X155254819Y-98338094D01*
X155254819Y-98338094D02*
X155254819Y-97957142D01*
X155254819Y-97957142D02*
X155302438Y-97861904D01*
X155302438Y-97861904D02*
X155350057Y-97814285D01*
X155350057Y-97814285D02*
X155445295Y-97766666D01*
X155445295Y-97766666D02*
X155588152Y-97766666D01*
X155588152Y-97766666D02*
X155683390Y-97814285D01*
X155683390Y-97814285D02*
X155731009Y-97861904D01*
X155731009Y-97861904D02*
X155778628Y-97957142D01*
X155778628Y-97957142D02*
X155778628Y-98338094D01*
X155254819Y-97433332D02*
X155254819Y-96814285D01*
X155254819Y-96814285D02*
X155635771Y-97147618D01*
X155635771Y-97147618D02*
X155635771Y-97004761D01*
X155635771Y-97004761D02*
X155683390Y-96909523D01*
X155683390Y-96909523D02*
X155731009Y-96861904D01*
X155731009Y-96861904D02*
X155826247Y-96814285D01*
X155826247Y-96814285D02*
X156064342Y-96814285D01*
X156064342Y-96814285D02*
X156159580Y-96861904D01*
X156159580Y-96861904D02*
X156207200Y-96909523D01*
X156207200Y-96909523D02*
X156254819Y-97004761D01*
X156254819Y-97004761D02*
X156254819Y-97290475D01*
X156254819Y-97290475D02*
X156207200Y-97385713D01*
X156207200Y-97385713D02*
X156159580Y-97433332D01*
D10*
X141407143Y-116072371D02*
X141407143Y-115472371D01*
X141407143Y-115472371D02*
X141550000Y-115472371D01*
X141550000Y-115472371D02*
X141635714Y-115500942D01*
X141635714Y-115500942D02*
X141692857Y-115558085D01*
X141692857Y-115558085D02*
X141721428Y-115615228D01*
X141721428Y-115615228D02*
X141750000Y-115729514D01*
X141750000Y-115729514D02*
X141750000Y-115815228D01*
X141750000Y-115815228D02*
X141721428Y-115929514D01*
X141721428Y-115929514D02*
X141692857Y-115986657D01*
X141692857Y-115986657D02*
X141635714Y-116043800D01*
X141635714Y-116043800D02*
X141550000Y-116072371D01*
X141550000Y-116072371D02*
X141407143Y-116072371D01*
X141978571Y-115529514D02*
X142007143Y-115500942D01*
X142007143Y-115500942D02*
X142064286Y-115472371D01*
X142064286Y-115472371D02*
X142207143Y-115472371D01*
X142207143Y-115472371D02*
X142264286Y-115500942D01*
X142264286Y-115500942D02*
X142292857Y-115529514D01*
X142292857Y-115529514D02*
X142321428Y-115586657D01*
X142321428Y-115586657D02*
X142321428Y-115643800D01*
X142321428Y-115643800D02*
X142292857Y-115729514D01*
X142292857Y-115729514D02*
X141950000Y-116072371D01*
X141950000Y-116072371D02*
X142321428Y-116072371D01*
D11*
X146950057Y-105295238D02*
X146902438Y-105390476D01*
X146902438Y-105390476D02*
X146807200Y-105485714D01*
X146807200Y-105485714D02*
X146664342Y-105628571D01*
X146664342Y-105628571D02*
X146616723Y-105723809D01*
X146616723Y-105723809D02*
X146616723Y-105819047D01*
X146854819Y-105771428D02*
X146807200Y-105866666D01*
X146807200Y-105866666D02*
X146711961Y-105961904D01*
X146711961Y-105961904D02*
X146521485Y-106009523D01*
X146521485Y-106009523D02*
X146188152Y-106009523D01*
X146188152Y-106009523D02*
X145997676Y-105961904D01*
X145997676Y-105961904D02*
X145902438Y-105866666D01*
X145902438Y-105866666D02*
X145854819Y-105771428D01*
X145854819Y-105771428D02*
X145854819Y-105580952D01*
X145854819Y-105580952D02*
X145902438Y-105485714D01*
X145902438Y-105485714D02*
X145997676Y-105390476D01*
X145997676Y-105390476D02*
X146188152Y-105342857D01*
X146188152Y-105342857D02*
X146521485Y-105342857D01*
X146521485Y-105342857D02*
X146711961Y-105390476D01*
X146711961Y-105390476D02*
X146807200Y-105485714D01*
X146807200Y-105485714D02*
X146854819Y-105580952D01*
X146854819Y-105580952D02*
X146854819Y-105771428D01*
X145854819Y-105009523D02*
X145854819Y-104390476D01*
X145854819Y-104390476D02*
X146235771Y-104723809D01*
X146235771Y-104723809D02*
X146235771Y-104580952D01*
X146235771Y-104580952D02*
X146283390Y-104485714D01*
X146283390Y-104485714D02*
X146331009Y-104438095D01*
X146331009Y-104438095D02*
X146426247Y-104390476D01*
X146426247Y-104390476D02*
X146664342Y-104390476D01*
X146664342Y-104390476D02*
X146759580Y-104438095D01*
X146759580Y-104438095D02*
X146807200Y-104485714D01*
X146807200Y-104485714D02*
X146854819Y-104580952D01*
X146854819Y-104580952D02*
X146854819Y-104866666D01*
X146854819Y-104866666D02*
X146807200Y-104961904D01*
X146807200Y-104961904D02*
X146759580Y-105009523D01*
D12*
%TO.C,RV1*%
X147260000Y-90325000D02*
X147260000Y-100095000D01*
X152330000Y-90325000D02*
X147260000Y-90325000D01*
X152330000Y-90325000D02*
X152330000Y-100095000D01*
X152330000Y-100095000D02*
X147260000Y-100095000D01*
%TO.C,R2*%
X153265000Y-102227064D02*
X153265000Y-101772936D01*
X154735000Y-102227064D02*
X154735000Y-101772936D01*
%TO.C,Q5*%
X148820000Y-110360000D02*
X148820000Y-108900000D01*
X148820000Y-110360000D02*
X149750000Y-110360000D01*
X151980000Y-109560000D02*
X151980000Y-108760000D01*
X151980000Y-109560000D02*
X151980000Y-110360000D01*
X151980000Y-110360000D02*
X151050000Y-110360000D01*
X152340000Y-108500000D02*
X152010000Y-108260000D01*
X152340000Y-108020000D01*
X152340000Y-108500000D01*
G36*
X152340000Y-108500000D02*
G01*
X152010000Y-108260000D01*
X152340000Y-108020000D01*
X152340000Y-108500000D01*
G37*
%TO.C,J5*%
X156600781Y-87350000D02*
G75*
G02*
X153399219Y-87350000I-1600781J0D01*
G01*
X153399219Y-87350000D02*
G75*
G02*
X156600781Y-87350000I1600781J0D01*
G01*
%TO.C,D1*%
X153150000Y-104590000D02*
X153150000Y-107850000D01*
X154850000Y-104590000D02*
X153150000Y-104590000D01*
X154850000Y-104590000D02*
X154850000Y-107850000D01*
%TO.C,R1*%
X142272936Y-104815000D02*
X142727064Y-104815000D01*
X142272936Y-106285000D02*
X142727064Y-106285000D01*
%TO.C,J6*%
X150600781Y-116200000D02*
G75*
G02*
X147399219Y-116200000I-1600781J0D01*
G01*
X147399219Y-116200000D02*
G75*
G02*
X150600781Y-116200000I1600781J0D01*
G01*
%TO.C,J1*%
X140000781Y-116200000D02*
G75*
G02*
X136799219Y-116200000I-1600781J0D01*
G01*
X136799219Y-116200000D02*
G75*
G02*
X140000781Y-116200000I1600781J0D01*
G01*
%TO.C,J3*%
X156600781Y-92450000D02*
G75*
G02*
X153399219Y-92450000I-1600781J0D01*
G01*
X153399219Y-92450000D02*
G75*
G02*
X156600781Y-92450000I1600781J0D01*
G01*
%TO.C,Q1*%
X141240000Y-113720000D02*
X141240000Y-111140000D01*
X142220000Y-111140000D02*
X141240000Y-111140000D01*
X144980000Y-111140000D02*
X145960000Y-111140000D01*
X145960000Y-111140000D02*
X145960000Y-113860000D01*
X141390000Y-114270000D02*
X141060000Y-114510000D01*
X141060000Y-114030000D01*
X141390000Y-114270000D01*
G36*
X141390000Y-114270000D02*
G01*
X141060000Y-114510000D01*
X141060000Y-114030000D01*
X141390000Y-114270000D01*
G37*
%TO.C,J4*%
X151050781Y-87350000D02*
G75*
G02*
X147849219Y-87350000I-1600781J0D01*
G01*
X147849219Y-87350000D02*
G75*
G02*
X151050781Y-87350000I1600781J0D01*
G01*
%TO.C,J2*%
X156600781Y-116200000D02*
G75*
G02*
X153399219Y-116200000I-1600781J0D01*
G01*
X153399219Y-116200000D02*
G75*
G02*
X156600781Y-116200000I1600781J0D01*
G01*
%TO.C,R3*%
X153265000Y-97372936D02*
X153265000Y-97827064D01*
X154735000Y-97372936D02*
X154735000Y-97827064D01*
%TO.C,D2*%
X145610000Y-115850000D02*
X142350000Y-115850000D01*
X145610000Y-117550000D02*
X142350000Y-117550000D01*
X145610000Y-117550000D02*
X145610000Y-115850000D01*
%TO.C,Q3*%
X147240000Y-104220000D02*
X147240000Y-101640000D01*
X148220000Y-101640000D02*
X147240000Y-101640000D01*
X150980000Y-101640000D02*
X151960000Y-101640000D01*
X151960000Y-101640000D02*
X151960000Y-104360000D01*
X147390000Y-104770000D02*
X147060000Y-105010000D01*
X147060000Y-104530000D01*
X147390000Y-104770000D01*
G36*
X147390000Y-104770000D02*
G01*
X147060000Y-105010000D01*
X147060000Y-104530000D01*
X147390000Y-104770000D01*
G37*
%TD*%
M02*
