%TF.GenerationSoftware,KiCad,Pcbnew,9.0.0*%
%TF.CreationDate,2025-02-28T18:37:17+01:00*%
%TF.ProjectId,C-Audio HV-CCS,432d4175-6469-46f2-9048-562d4343532e,rev?*%
%TF.SameCoordinates,Original*%
%TF.FileFunction,Copper,L1,Top*%
%TF.FilePolarity,Positive*%
%FSLAX46Y46*%
G04 Gerber Fmt 4.6, Leading zero omitted, Abs format (unit mm)*
G04 Created by KiCad (PCBNEW 9.0.0) date 2025-02-28 18:37:17*
%MOMM*%
%LPD*%
G01*
G04 APERTURE LIST*
G04 Aperture macros list*
%AMRoundRect*
0 Rectangle with rounded corners*
0 $1 Rounding radius*
0 $2 $3 $4 $5 $6 $7 $8 $9 X,Y pos of 4 corners*
0 Add a 4 corners polygon primitive as box body*
4,1,4,$2,$3,$4,$5,$6,$7,$8,$9,$2,$3,0*
0 Add four circle primitives for the rounded corners*
1,1,$1+$1,$2,$3*
1,1,$1+$1,$4,$5*
1,1,$1+$1,$6,$7*
1,1,$1+$1,$8,$9*
0 Add four rect primitives between the rounded corners*
20,1,$1+$1,$2,$3,$4,$5,0*
20,1,$1+$1,$4,$5,$6,$7,0*
20,1,$1+$1,$6,$7,$8,$9,0*
20,1,$1+$1,$8,$9,$2,$3,0*%
%AMFreePoly0*
4,1,9,3.862500,-0.866500,0.737500,-0.866500,0.737500,-0.450000,-0.737500,-0.450000,-0.737500,0.450000,0.737500,0.450000,0.737500,0.866500,3.862500,0.866500,3.862500,-0.866500,3.862500,-0.866500,$1*%
G04 Aperture macros list end*
%TA.AperFunction,ComponentPad*%
%ADD10C,1.440000*%
%TD*%
%TA.AperFunction,SMDPad,CuDef*%
%ADD11RoundRect,0.250000X0.450000X-0.350000X0.450000X0.350000X-0.450000X0.350000X-0.450000X-0.350000X0*%
%TD*%
%TA.AperFunction,SMDPad,CuDef*%
%ADD12RoundRect,0.200000X-0.200000X0.750000X-0.200000X-0.750000X0.200000X-0.750000X0.200000X0.750000X0*%
%TD*%
%TA.AperFunction,ComponentPad*%
%ADD13C,2.600000*%
%TD*%
%TA.AperFunction,SMDPad,CuDef*%
%ADD14RoundRect,0.250000X-0.250000X0.250000X-0.250000X-0.250000X0.250000X-0.250000X0.250000X0.250000X0*%
%TD*%
%TA.AperFunction,SMDPad,CuDef*%
%ADD15RoundRect,0.250000X-0.350000X-0.450000X0.350000X-0.450000X0.350000X0.450000X-0.350000X0.450000X0*%
%TD*%
%TA.AperFunction,SMDPad,CuDef*%
%ADD16RoundRect,0.225000X0.225000X-0.425000X0.225000X0.425000X-0.225000X0.425000X-0.225000X-0.425000X0*%
%TD*%
%TA.AperFunction,SMDPad,CuDef*%
%ADD17FreePoly0,90.000000*%
%TD*%
%TA.AperFunction,SMDPad,CuDef*%
%ADD18RoundRect,0.250000X-0.450000X0.350000X-0.450000X-0.350000X0.450000X-0.350000X0.450000X0.350000X0*%
%TD*%
%TA.AperFunction,SMDPad,CuDef*%
%ADD19RoundRect,0.250000X0.250000X0.250000X-0.250000X0.250000X-0.250000X-0.250000X0.250000X-0.250000X0*%
%TD*%
%TA.AperFunction,ComponentPad*%
%ADD20R,1.905000X2.000000*%
%TD*%
%TA.AperFunction,ComponentPad*%
%ADD21O,1.905000X2.000000*%
%TD*%
%TA.AperFunction,ViaPad*%
%ADD22C,0.600000*%
%TD*%
%TA.AperFunction,Conductor*%
%ADD23C,0.200000*%
%TD*%
%TA.AperFunction,Conductor*%
%ADD24C,0.500000*%
%TD*%
%TA.AperFunction,Conductor*%
%ADD25C,0.300000*%
%TD*%
G04 APERTURE END LIST*
D10*
%TO.P,RV1,1,1*%
%TO.N,/Mu-Follower_out*%
X149800000Y-97750000D03*
%TO.P,RV1,2,2*%
%TO.N,/V-Set*%
X149800000Y-95210000D03*
%TO.P,RV1,3,3*%
X149800000Y-92670001D03*
%TD*%
D11*
%TO.P,R2,1*%
%TO.N,Net-(D1-A2)*%
X154000000Y-103000000D03*
%TO.P,R2,2*%
%TO.N,VSS*%
X154000000Y-101000000D03*
%TD*%
D12*
%TO.P,Q5,1,S*%
%TO.N,/Mu-Follower_out*%
X151350000Y-108100000D03*
%TO.P,Q5,2,D*%
%TO.N,Net-(D2-A1)*%
X149450000Y-108100000D03*
%TO.P,Q5,3,G*%
%TO.N,Net-(D1-A2)*%
X150400000Y-111100000D03*
%TD*%
D13*
%TO.P,J5,1,Pin_1*%
%TO.N,VSS*%
X155000000Y-87350000D03*
%TD*%
D14*
%TO.P,D1,1,A1*%
%TO.N,/Mu-Follower_out*%
X154000000Y-105350001D03*
%TO.P,D1,2,A2*%
%TO.N,Net-(D1-A2)*%
X154000000Y-107849999D03*
%TD*%
D15*
%TO.P,R1,1*%
%TO.N,Net-(D2-A2)*%
X141500000Y-105550000D03*
%TO.P,R1,2*%
%TO.N,/Mu-Follower_out*%
X143500000Y-105550000D03*
%TD*%
D13*
%TO.P,J6,1,Pin_1*%
%TO.N,VDD*%
X149000000Y-116200000D03*
%TD*%
%TO.P,J1,1,Pin_1*%
%TO.N,VDD*%
X138400000Y-116200000D03*
%TD*%
%TO.P,J3,1,Pin_1*%
%TO.N,VSS*%
X155000000Y-92450000D03*
%TD*%
D16*
%TO.P,Q1,1,G*%
%TO.N,Net-(D2-A2)*%
X142100000Y-114450000D03*
D17*
%TO.P,Q1,2,D*%
%TO.N,VDD*%
X143600000Y-114362499D03*
D16*
%TO.P,Q1,3,S*%
%TO.N,Net-(D2-A1)*%
X145100000Y-114450000D03*
%TD*%
D13*
%TO.P,J4,1,Pin_1*%
%TO.N,/V-Set*%
X149450000Y-87350000D03*
%TD*%
%TO.P,J2,1,Pin_1*%
%TO.N,/Mu-Follower_out*%
X155000000Y-116200000D03*
%TD*%
D18*
%TO.P,R3,1*%
%TO.N,/V-Set*%
X154000000Y-96600000D03*
%TO.P,R3,2*%
%TO.N,VSS*%
X154000000Y-98600000D03*
%TD*%
D19*
%TO.P,D2,1,A1*%
%TO.N,Net-(D2-A1)*%
X144849999Y-116700000D03*
%TO.P,D2,2,A2*%
%TO.N,Net-(D2-A2)*%
X142350001Y-116700000D03*
%TD*%
D16*
%TO.P,Q3,1,G*%
%TO.N,Net-(D1-A2)*%
X148100000Y-104950000D03*
D17*
%TO.P,Q3,2,D*%
%TO.N,Net-(D2-A1)*%
X149600000Y-104862499D03*
D16*
%TO.P,Q3,3,S*%
%TO.N,/Mu-Follower_out*%
X151100000Y-104950000D03*
%TD*%
D20*
%TO.P,Q2,1,G*%
%TO.N,Net-(D2-A2)*%
X139960000Y-108500000D03*
D21*
%TO.P,Q2,2,D*%
%TO.N,VDD*%
X142500000Y-108500000D03*
%TO.P,Q2,3,S*%
%TO.N,Net-(D2-A1)*%
X145039999Y-108500000D03*
%TD*%
D22*
%TO.N,/Mu-Follower_out*%
X152500000Y-105550000D03*
X145100000Y-105550000D03*
%TO.N,Net-(D1-A2)*%
X155300000Y-103000000D03*
X148000000Y-103000000D03*
%TO.N,VDD*%
X144900000Y-110900000D03*
X142300000Y-110900000D03*
%TD*%
D23*
%TO.N,/Mu-Follower_out*%
X143500000Y-105550000D02*
X145100000Y-105550000D01*
D24*
X152500000Y-105350001D02*
X151500001Y-105350001D01*
D25*
X155000000Y-116200000D02*
X155000000Y-114100000D01*
D24*
X152000000Y-108100000D02*
X151350000Y-108100000D01*
X152500000Y-105350001D02*
X152500000Y-107600000D01*
D25*
X151101000Y-109599000D02*
X151350000Y-109350000D01*
X151350000Y-109350000D02*
X151350000Y-108100000D01*
D24*
X152500000Y-105350001D02*
X152500000Y-100450000D01*
X152500000Y-107600000D02*
X152000000Y-108100000D01*
D25*
X149883384Y-109599000D02*
X151101000Y-109599000D01*
D24*
X152500000Y-100450000D02*
X149800000Y-97750000D01*
D25*
X155000000Y-114100000D02*
X153900000Y-113000000D01*
X149200000Y-110282384D02*
X149883384Y-109599000D01*
X149200000Y-112200000D02*
X149200000Y-110282384D01*
D24*
X151500001Y-105350001D02*
X151100000Y-104950000D01*
D25*
X153900000Y-113000000D02*
X150000000Y-113000000D01*
D24*
X154000000Y-105350001D02*
X152500000Y-105350001D01*
D25*
X150000000Y-113000000D02*
X149200000Y-112200000D01*
D23*
%TO.N,VSS*%
X154200000Y-99800000D02*
X154700000Y-99800000D01*
%TO.N,Net-(D1-A2)*%
X155300000Y-103000000D02*
X154000000Y-103000000D01*
X155101000Y-104101000D02*
X154000000Y-103000000D01*
X150400000Y-111100000D02*
X152850000Y-111100000D01*
X148100000Y-103100000D02*
X148000000Y-103000000D01*
X154000000Y-107849999D02*
X155101000Y-106748999D01*
X154000000Y-109950000D02*
X154000000Y-107849999D01*
X155101000Y-106748999D02*
X155101000Y-104101000D01*
X152850000Y-111100000D02*
X154000000Y-109950000D01*
X148100000Y-104950000D02*
X148100000Y-103100000D01*
%TO.N,Net-(D2-A2)*%
X139960000Y-112310000D02*
X139960000Y-108500000D01*
X142100000Y-114450000D02*
X142100000Y-116449999D01*
X139960000Y-108500000D02*
X139960000Y-107090000D01*
X142100000Y-116449999D02*
X142350001Y-116700000D01*
X139960000Y-107090000D02*
X141500000Y-105550000D01*
X142100000Y-114450000D02*
X139960000Y-112310000D01*
%TO.N,Net-(D2-A1)*%
X145100000Y-114450000D02*
X145100000Y-116449999D01*
X146200000Y-109660001D02*
X145039999Y-108500000D01*
D24*
X149050000Y-108500000D02*
X149450000Y-108100000D01*
D23*
X145100000Y-116449999D02*
X144849999Y-116700000D01*
D24*
X149450000Y-105012499D02*
X149600000Y-104862499D01*
X145039999Y-108500000D02*
X149050000Y-108500000D01*
X149450000Y-108100000D02*
X149450000Y-105012499D01*
D23*
X146200000Y-113350000D02*
X146200000Y-109660001D01*
X145100000Y-114450000D02*
X146200000Y-113350000D01*
D24*
%TO.N,/V-Set*%
X149800000Y-95210000D02*
X152610000Y-95210000D01*
X149800000Y-87700000D02*
X149450000Y-87350000D01*
X149800000Y-95210000D02*
X149800000Y-92670001D01*
X152610000Y-95210000D02*
X154000000Y-96600000D01*
X149800000Y-92670001D02*
X149800000Y-87700000D01*
%TD*%
%TA.AperFunction,Conductor*%
%TO.N,VSS*%
G36*
X153919731Y-85920185D02*
G01*
X153940373Y-85936819D01*
X154752512Y-86748958D01*
X154692110Y-86773978D01*
X154585649Y-86845112D01*
X154495112Y-86935649D01*
X154423978Y-87042110D01*
X154398958Y-87102512D01*
X153562721Y-86266275D01*
X153562720Y-86266275D01*
X153500150Y-86347818D01*
X153500144Y-86347828D01*
X153382165Y-86552171D01*
X153382160Y-86552180D01*
X153291870Y-86770162D01*
X153230799Y-86998085D01*
X153200000Y-87232014D01*
X153200000Y-87467985D01*
X153230799Y-87701914D01*
X153291870Y-87929837D01*
X153382160Y-88147819D01*
X153382165Y-88147828D01*
X153500144Y-88352171D01*
X153500145Y-88352172D01*
X153562721Y-88433723D01*
X154398958Y-87597487D01*
X154423978Y-87657890D01*
X154495112Y-87764351D01*
X154585649Y-87854888D01*
X154692110Y-87926022D01*
X154752511Y-87951041D01*
X153916275Y-88787277D01*
X153997827Y-88849854D01*
X153997828Y-88849855D01*
X154202171Y-88967834D01*
X154202180Y-88967839D01*
X154420163Y-89058129D01*
X154420161Y-89058129D01*
X154648085Y-89119200D01*
X154882014Y-89149999D01*
X154882029Y-89150000D01*
X155117971Y-89150000D01*
X155117985Y-89149999D01*
X155351914Y-89119200D01*
X155579837Y-89058129D01*
X155797819Y-88967839D01*
X155797828Y-88967834D01*
X156002181Y-88849850D01*
X156083723Y-88787279D01*
X156083723Y-88787276D01*
X155247487Y-87951041D01*
X155307890Y-87926022D01*
X155414351Y-87854888D01*
X155504888Y-87764351D01*
X155576022Y-87657890D01*
X155601041Y-87597488D01*
X156413935Y-88410382D01*
X156447420Y-88471705D01*
X156450254Y-88498066D01*
X156450182Y-91302010D01*
X156430496Y-91369049D01*
X156413863Y-91389688D01*
X155601041Y-92202510D01*
X155576022Y-92142110D01*
X155504888Y-92035649D01*
X155414351Y-91945112D01*
X155307890Y-91873978D01*
X155247488Y-91848958D01*
X156083723Y-91012721D01*
X156002172Y-90950145D01*
X156002171Y-90950144D01*
X155797828Y-90832165D01*
X155797819Y-90832160D01*
X155579836Y-90741870D01*
X155579838Y-90741870D01*
X155351914Y-90680799D01*
X155117985Y-90650000D01*
X154882014Y-90650000D01*
X154648085Y-90680799D01*
X154420162Y-90741870D01*
X154202180Y-90832160D01*
X154202171Y-90832165D01*
X153997828Y-90950144D01*
X153997818Y-90950150D01*
X153916275Y-91012720D01*
X153916275Y-91012721D01*
X154752512Y-91848958D01*
X154692110Y-91873978D01*
X154585649Y-91945112D01*
X154495112Y-92035649D01*
X154423978Y-92142110D01*
X154398958Y-92202512D01*
X153562721Y-91366275D01*
X153562720Y-91366275D01*
X153500150Y-91447818D01*
X153500144Y-91447828D01*
X153382165Y-91652171D01*
X153382160Y-91652180D01*
X153291870Y-91870162D01*
X153230799Y-92098085D01*
X153200000Y-92332014D01*
X153200000Y-92567985D01*
X153230799Y-92801914D01*
X153291870Y-93029837D01*
X153382160Y-93247819D01*
X153382165Y-93247828D01*
X153500144Y-93452171D01*
X153500145Y-93452172D01*
X153562721Y-93533723D01*
X154398958Y-92697487D01*
X154423978Y-92757890D01*
X154495112Y-92864351D01*
X154585649Y-92954888D01*
X154692110Y-93026022D01*
X154752511Y-93051041D01*
X153916275Y-93887277D01*
X153997827Y-93949854D01*
X153997828Y-93949855D01*
X154202171Y-94067834D01*
X154202180Y-94067839D01*
X154420163Y-94158129D01*
X154420161Y-94158129D01*
X154648085Y-94219200D01*
X154882014Y-94249999D01*
X154882029Y-94250000D01*
X155117971Y-94250000D01*
X155117985Y-94249999D01*
X155351914Y-94219200D01*
X155579837Y-94158129D01*
X155797819Y-94067839D01*
X155797828Y-94067834D01*
X156002181Y-93949850D01*
X156083723Y-93887279D01*
X156083723Y-93887276D01*
X155247487Y-93051041D01*
X155307890Y-93026022D01*
X155414351Y-92954888D01*
X155504888Y-92864351D01*
X155576022Y-92757890D01*
X155601041Y-92697488D01*
X156413802Y-93510249D01*
X156447287Y-93571572D01*
X156450121Y-93597933D01*
X156449910Y-101776003D01*
X156430224Y-101843042D01*
X156377419Y-101888796D01*
X156325910Y-101900000D01*
X155214126Y-101900000D01*
X155147087Y-101880315D01*
X155101332Y-101827511D01*
X155091388Y-101758353D01*
X155108587Y-101710904D01*
X155134354Y-101669128D01*
X155134358Y-101669119D01*
X155189505Y-101502697D01*
X155189506Y-101502690D01*
X155199999Y-101399986D01*
X155200000Y-101399973D01*
X155200000Y-101250000D01*
X154124000Y-101250000D01*
X154056961Y-101230315D01*
X154011206Y-101177511D01*
X154000000Y-101126000D01*
X154000000Y-101000000D01*
X153874000Y-101000000D01*
X153806961Y-100980315D01*
X153761206Y-100927511D01*
X153750000Y-100876000D01*
X153750000Y-99899999D01*
X153737681Y-99887680D01*
X153704196Y-99826357D01*
X153709180Y-99756665D01*
X153737681Y-99712318D01*
X153750000Y-99699999D01*
X154250000Y-99699999D01*
X154262319Y-99712318D01*
X154295804Y-99773641D01*
X154290820Y-99843333D01*
X154262320Y-99887679D01*
X154250000Y-99899999D01*
X154250000Y-100750000D01*
X155199999Y-100750000D01*
X155199999Y-100600028D01*
X155199998Y-100600013D01*
X155189505Y-100497302D01*
X155134358Y-100330880D01*
X155134356Y-100330875D01*
X155042315Y-100181654D01*
X154918345Y-100057684D01*
X154769124Y-99965643D01*
X154769119Y-99965641D01*
X154624460Y-99917706D01*
X154567015Y-99877933D01*
X154540192Y-99813417D01*
X154552507Y-99744642D01*
X154600050Y-99693442D01*
X154624460Y-99682294D01*
X154769119Y-99634358D01*
X154769124Y-99634356D01*
X154918345Y-99542315D01*
X155042315Y-99418345D01*
X155134356Y-99269124D01*
X155134358Y-99269119D01*
X155189505Y-99102697D01*
X155189506Y-99102690D01*
X155199999Y-98999986D01*
X155200000Y-98999973D01*
X155200000Y-98850000D01*
X154250000Y-98850000D01*
X154250000Y-99699999D01*
X153750000Y-99699999D01*
X153750000Y-98724000D01*
X153769685Y-98656961D01*
X153822489Y-98611206D01*
X153874000Y-98600000D01*
X154000000Y-98600000D01*
X154000000Y-98474000D01*
X154019685Y-98406961D01*
X154072489Y-98361206D01*
X154124000Y-98350000D01*
X155199999Y-98350000D01*
X155199999Y-98200028D01*
X155199998Y-98200013D01*
X155189506Y-98097304D01*
X155178140Y-98063005D01*
X155175738Y-97993177D01*
X155211469Y-97933134D01*
X155273989Y-97901941D01*
X155295846Y-97900000D01*
X155300000Y-97900000D01*
X155300000Y-95900001D01*
X155299999Y-95899999D01*
X153330509Y-93926927D01*
X152836239Y-93431758D01*
X152802810Y-93370404D01*
X152800000Y-93344156D01*
X152800000Y-86024500D01*
X152819685Y-85957461D01*
X152872489Y-85911706D01*
X152924000Y-85900500D01*
X153852692Y-85900500D01*
X153919731Y-85920185D01*
G37*
%TD.AperFunction*%
%TD*%
%TA.AperFunction,Conductor*%
%TO.N,VDD*%
G36*
X145343039Y-110419685D02*
G01*
X145388794Y-110472489D01*
X145400000Y-110524000D01*
X145400000Y-112361265D01*
X145380315Y-112428304D01*
X145377952Y-112431847D01*
X144805674Y-113258469D01*
X144751330Y-113302384D01*
X144729690Y-113309137D01*
X144727298Y-113309649D01*
X144566307Y-113362995D01*
X144566294Y-113363001D01*
X144421959Y-113452029D01*
X144421955Y-113452032D01*
X144302033Y-113571954D01*
X144302032Y-113571956D01*
X144259383Y-113641099D01*
X144207438Y-113687821D01*
X144153847Y-113700000D01*
X143046153Y-113700000D01*
X142979114Y-113680315D01*
X142940616Y-113641099D01*
X142897968Y-113571956D01*
X142778044Y-113452032D01*
X142778040Y-113452029D01*
X142633705Y-113363001D01*
X142633698Y-113362998D01*
X142633697Y-113362997D01*
X142633694Y-113362996D01*
X142633692Y-113362995D01*
X142472702Y-113309649D01*
X142470301Y-113309135D01*
X142468965Y-113308411D01*
X142466282Y-113307522D01*
X142466440Y-113307042D01*
X142408872Y-113275844D01*
X142394324Y-113258468D01*
X141822048Y-112431847D01*
X141800073Y-112365523D01*
X141800000Y-112361265D01*
X141800000Y-110524000D01*
X141819685Y-110456961D01*
X141872489Y-110411206D01*
X141924000Y-110400000D01*
X145276000Y-110400000D01*
X145343039Y-110419685D01*
G37*
%TD.AperFunction*%
%TD*%
M02*
