%TF.GenerationSoftware,KiCad,Pcbnew,9.0.0*%
%TF.CreationDate,2025-02-28T18:37:17+01:00*%
%TF.ProjectId,C-Audio HV-CCS,432d4175-6469-46f2-9048-562d4343532e,rev?*%
%TF.SameCoordinates,Original*%
%TF.FileFunction,Copper,L2,Bot*%
%TF.FilePolarity,Positive*%
%FSLAX46Y46*%
G04 Gerber Fmt 4.6, Leading zero omitted, Abs format (unit mm)*
G04 Created by KiCad (PCBNEW 9.0.0) date 2025-02-28 18:37:17*
%MOMM*%
%LPD*%
G01*
G04 APERTURE LIST*
%TA.AperFunction,ComponentPad*%
%ADD10C,1.440000*%
%TD*%
%TA.AperFunction,ComponentPad*%
%ADD11C,2.600000*%
%TD*%
%TA.AperFunction,ComponentPad*%
%ADD12R,1.905000X2.000000*%
%TD*%
%TA.AperFunction,ComponentPad*%
%ADD13O,1.905000X2.000000*%
%TD*%
%TA.AperFunction,ViaPad*%
%ADD14C,0.600000*%
%TD*%
%TA.AperFunction,Conductor*%
%ADD15C,0.200000*%
%TD*%
G04 APERTURE END LIST*
D10*
%TO.P,RV1,1,1*%
%TO.N,/Mu-Follower_out*%
X149800000Y-97750000D03*
%TO.P,RV1,2,2*%
%TO.N,/V-Set*%
X149800000Y-95210000D03*
%TO.P,RV1,3,3*%
X149800000Y-92670001D03*
%TD*%
D11*
%TO.P,J5,1,Pin_1*%
%TO.N,VSS*%
X155000000Y-87350000D03*
%TD*%
%TO.P,J6,1,Pin_1*%
%TO.N,VDD*%
X149000000Y-116200000D03*
%TD*%
%TO.P,J1,1,Pin_1*%
%TO.N,VDD*%
X138400000Y-116200000D03*
%TD*%
%TO.P,J3,1,Pin_1*%
%TO.N,VSS*%
X155000000Y-92450000D03*
%TD*%
%TO.P,J4,1,Pin_1*%
%TO.N,/V-Set*%
X149450000Y-87350000D03*
%TD*%
%TO.P,J2,1,Pin_1*%
%TO.N,/Mu-Follower_out*%
X155000000Y-116200000D03*
%TD*%
D12*
%TO.P,Q2,1,G*%
%TO.N,Net-(D2-A2)*%
X139960000Y-108500000D03*
D13*
%TO.P,Q2,2,D*%
%TO.N,VDD*%
X142500000Y-108500000D03*
%TO.P,Q2,3,S*%
%TO.N,Net-(D2-A1)*%
X145039999Y-108500000D03*
%TD*%
D14*
%TO.N,/Mu-Follower_out*%
X152500000Y-105550000D03*
X145100000Y-105550000D03*
%TO.N,Net-(D1-A2)*%
X155300000Y-103000000D03*
X148000000Y-103000000D03*
%TO.N,VDD*%
X144900000Y-110900000D03*
X142300000Y-110900000D03*
%TD*%
D15*
%TO.N,/Mu-Follower_out*%
X145100000Y-105550000D02*
X152500000Y-105550000D01*
%TO.N,Net-(D1-A2)*%
X148000000Y-103000000D02*
X155300000Y-103000000D01*
%TD*%
%TA.AperFunction,Conductor*%
%TO.N,VDD*%
G36*
X137823978Y-116507890D02*
G01*
X137895112Y-116614351D01*
X137985649Y-116704888D01*
X138092110Y-116776022D01*
X138152512Y-116801041D01*
X137290372Y-117663181D01*
X137263444Y-117677884D01*
X137237626Y-117694477D01*
X137231425Y-117695368D01*
X137229049Y-117696666D01*
X137202691Y-117699500D01*
X137024500Y-117699500D01*
X136957461Y-117679815D01*
X136911706Y-117627011D01*
X136900500Y-117575500D01*
X136900500Y-117397307D01*
X136920185Y-117330268D01*
X136936819Y-117309626D01*
X137798958Y-116447487D01*
X137823978Y-116507890D01*
G37*
%TD.AperFunction*%
%TA.AperFunction,Conductor*%
G36*
X142750000Y-109978508D02*
G01*
X142840128Y-109964234D01*
X143057570Y-109893582D01*
X143261277Y-109789788D01*
X143303113Y-109759392D01*
X143368919Y-109735911D01*
X143436974Y-109751736D01*
X143485669Y-109801841D01*
X143500000Y-109859709D01*
X143500000Y-110100000D01*
X145976000Y-110100000D01*
X146043039Y-110119685D01*
X146088794Y-110172489D01*
X146100000Y-110224000D01*
X146100000Y-113400000D01*
X150976000Y-113400000D01*
X151043039Y-113419685D01*
X151088794Y-113472489D01*
X151100000Y-113524000D01*
X151100000Y-117575500D01*
X151080315Y-117642539D01*
X151027511Y-117688294D01*
X150976000Y-117699500D01*
X150197309Y-117699500D01*
X150130270Y-117679815D01*
X150109628Y-117663181D01*
X149247487Y-116801041D01*
X149307890Y-116776022D01*
X149414351Y-116704888D01*
X149504888Y-116614351D01*
X149576022Y-116507890D01*
X149601041Y-116447488D01*
X150437276Y-117283723D01*
X150437279Y-117283723D01*
X150499850Y-117202181D01*
X150617834Y-116997828D01*
X150617839Y-116997819D01*
X150708129Y-116779837D01*
X150769200Y-116551914D01*
X150799999Y-116317985D01*
X150800000Y-116317971D01*
X150800000Y-116082028D01*
X150799999Y-116082014D01*
X150769200Y-115848085D01*
X150708129Y-115620162D01*
X150617839Y-115402180D01*
X150617834Y-115402171D01*
X150499855Y-115197828D01*
X150499854Y-115197827D01*
X150437277Y-115116275D01*
X149601041Y-115952511D01*
X149576022Y-115892110D01*
X149504888Y-115785649D01*
X149414351Y-115695112D01*
X149307890Y-115623978D01*
X149247488Y-115598958D01*
X150083723Y-114762721D01*
X150002172Y-114700145D01*
X150002171Y-114700144D01*
X149797828Y-114582165D01*
X149797819Y-114582160D01*
X149579836Y-114491870D01*
X149579838Y-114491870D01*
X149351914Y-114430799D01*
X149117985Y-114400000D01*
X148882014Y-114400000D01*
X148648085Y-114430799D01*
X148420162Y-114491870D01*
X148202180Y-114582160D01*
X148202171Y-114582165D01*
X147997828Y-114700144D01*
X147997818Y-114700150D01*
X147916275Y-114762720D01*
X147916275Y-114762721D01*
X148752512Y-115598958D01*
X148692110Y-115623978D01*
X148585649Y-115695112D01*
X148495112Y-115785649D01*
X148423978Y-115892110D01*
X148398958Y-115952511D01*
X147562721Y-115116275D01*
X147562720Y-115116275D01*
X147500150Y-115197818D01*
X147500144Y-115197828D01*
X147382165Y-115402171D01*
X147382160Y-115402180D01*
X147291870Y-115620162D01*
X147230799Y-115848085D01*
X147200000Y-116082014D01*
X147200000Y-116317985D01*
X147230799Y-116551914D01*
X147291870Y-116779837D01*
X147382160Y-116997819D01*
X147382165Y-116997828D01*
X147500144Y-117202171D01*
X147500145Y-117202172D01*
X147562721Y-117283723D01*
X148398958Y-116447487D01*
X148423978Y-116507890D01*
X148495112Y-116614351D01*
X148585649Y-116704888D01*
X148692110Y-116776022D01*
X148752512Y-116801041D01*
X147890372Y-117663181D01*
X147829049Y-117696666D01*
X147802691Y-117699500D01*
X139597309Y-117699500D01*
X139530270Y-117679815D01*
X139509628Y-117663181D01*
X138647487Y-116801041D01*
X138707890Y-116776022D01*
X138814351Y-116704888D01*
X138904888Y-116614351D01*
X138976022Y-116507890D01*
X139001041Y-116447488D01*
X139837276Y-117283723D01*
X139837279Y-117283723D01*
X139899850Y-117202181D01*
X140017834Y-116997828D01*
X140017839Y-116997819D01*
X140108129Y-116779837D01*
X140169200Y-116551914D01*
X140199999Y-116317985D01*
X140200000Y-116317971D01*
X140200000Y-116082028D01*
X140199999Y-116082014D01*
X140169200Y-115848085D01*
X140108129Y-115620162D01*
X140017839Y-115402180D01*
X140017834Y-115402171D01*
X139899855Y-115197828D01*
X139899854Y-115197827D01*
X139837277Y-115116275D01*
X139001041Y-115952511D01*
X138976022Y-115892110D01*
X138904888Y-115785649D01*
X138814351Y-115695112D01*
X138707890Y-115623978D01*
X138647488Y-115598958D01*
X139483723Y-114762721D01*
X139402172Y-114700145D01*
X139402171Y-114700144D01*
X139197828Y-114582165D01*
X139197819Y-114582160D01*
X138979836Y-114491870D01*
X138979838Y-114491870D01*
X138751914Y-114430799D01*
X138517985Y-114400000D01*
X138282014Y-114400000D01*
X138048085Y-114430799D01*
X137820162Y-114491870D01*
X137602180Y-114582160D01*
X137602171Y-114582165D01*
X137397828Y-114700144D01*
X137397818Y-114700150D01*
X137316275Y-114762720D01*
X137316275Y-114762721D01*
X138152512Y-115598958D01*
X138092110Y-115623978D01*
X137985649Y-115695112D01*
X137895112Y-115785649D01*
X137823978Y-115892110D01*
X137798958Y-115952512D01*
X136936819Y-115090373D01*
X136922115Y-115063445D01*
X136905523Y-115037627D01*
X136904631Y-115031426D01*
X136903334Y-115029050D01*
X136900500Y-115002692D01*
X136900500Y-110224000D01*
X136920185Y-110156961D01*
X136972989Y-110111206D01*
X137024500Y-110100000D01*
X141200000Y-110100000D01*
X141200000Y-109972051D01*
X141219685Y-109905012D01*
X141249685Y-109872787D01*
X141270046Y-109857546D01*
X141356296Y-109742331D01*
X141366872Y-109713974D01*
X141408740Y-109658041D01*
X141474204Y-109633622D01*
X141542477Y-109648472D01*
X141555940Y-109656988D01*
X141738723Y-109789788D01*
X141942429Y-109893582D01*
X142159871Y-109964234D01*
X142250000Y-109978509D01*
X142250000Y-108990747D01*
X142287708Y-109012518D01*
X142427591Y-109050000D01*
X142572409Y-109050000D01*
X142712292Y-109012518D01*
X142750000Y-108990747D01*
X142750000Y-109978508D01*
G37*
%TD.AperFunction*%
%TD*%
M02*
